<?xml version="1.0" encoding="UTF-8" standalone="no"?>
<!-- Created with Inkscape (http://www.inkscape.org/) -->

<svg
   xmlns:dc="http://purl.org/dc/elements/1.1/"
   xmlns:cc="http://creativecommons.org/ns#"
   xmlns:rdf="http://www.w3.org/1999/02/22-rdf-syntax-ns#"
   xmlns:svg="http://www.w3.org/2000/svg"
   xmlns="http://www.w3.org/2000/svg"
   xmlns:sodipodi="http://sodipodi.sourceforge.net/DTD/sodipodi-0.dtd"
   xmlns:inkscape="http://www.inkscape.org/namespaces/inkscape"
   width="744.09448819"
   height="1052.3622047"
   id="svg3913"
   version="1.1"
   inkscape:version="0.48.4 r9939"
   sodipodi:docname="abuksigun_logo.svg"
   inkscape:export-filename="/home/trizer/Hobby/Blog/abuksigun_logo.png"
   inkscape:export-xdpi="89"
   inkscape:export-ydpi="89">
  <defs
     id="defs3915" />
  <sodipodi:namedview
     id="base"
     pagecolor="#ffffff"
     bordercolor="#666666"
     borderopacity="1.0"
     inkscape:pageopacity="0.0"
     inkscape:pageshadow="2"
     inkscape:zoom="0.24748737"
     inkscape:cx="298.05985"
     inkscape:cy="601.89943"
     inkscape:document-units="px"
     inkscape:current-layer="layer1"
     showgrid="false"
     inkscape:window-width="586"
     inkscape:window-height="394"
     inkscape:window-x="0"
     inkscape:window-y="24"
     inkscape:window-maximized="0" />
  <metadata
     id="metadata3918">
    <rdf:RDF>
      <cc:Work
         rdf:about="">
        <dc:format>image/svg+xml</dc:format>
        <dc:type
           rdf:resource="http://purl.org/dc/dcmitype/StillImage" />
        <dc:title></dc:title>
      </cc:Work>
    </rdf:RDF>
  </metadata>
  <g
     inkscape:label="Layer 1"
     inkscape:groupmode="layer"
     id="layer1">
    <g
       transform="matrix(0.2392875,0,0,0.2392875,-175.96681,62.210168)"
       id="g3849">
      <path
         inkscape:connector-curvature="0"
         d="m 1989.4309,1911.3653 c 0,32.6797 -26.4922,59.1718 -59.1718,59.1718 -32.6797,0 -59.1718,-26.4921 -59.1718,-59.1718 0,-32.6796 26.4921,-59.1718 59.1718,-59.1718 32.6796,0 59.1718,26.4922 59.1718,59.1718 z m -61.9811,173.5761 c -2.9578,-0.047 -5.9128,-0.1866 -8.838,-0.3804 -2.9249,-0.1943 -5.8323,-0.452 -8.7207,-0.7902 -2.3301,-0.2727 -4.6321,-0.6306 -6.9358,-0.995 -0.4867,-4.2905 -0.1756,-6.6138 -0.1756,-6.6138 l 5.4432,-32.7471 c -13.9648,-2.323 -27.5847,-6.8548 -40.151,-13.3739 l -15.2761,29.4695 c 0,0 -1.1466,2.0197 -4.0971,5.1506 -1.1396,-0.6032 -2.2993,-1.1576 -3.4239,-1.7852 -2.4543,-1.3691 -4.8758,-2.8192 -7.2576,-4.3019 -2.3821,-1.4828 -4.7178,-3.0014 -7.0235,-4.5946 -2.3058,-1.5933 -4.5638,-3.2745 -6.7894,-4.975 -2.2259,-1.7004 -4.4136,-3.434 -6.5553,-5.2384 -2.1419,-1.8042 -4.2382,-3.6555 -6.2919,-5.5601 -1.617,-1.5 -3.2099,-3.0637 -4.7703,-4.624 2.1232,-3.7433 3.7168,-5.4139 3.7168,-5.4139 l 23.6749,-23.2946 c -9.9321,-10.0878 -18.2767,-21.7546 -24.6114,-34.4152 l -29.7037,14.8372 c 0,0 -2.1073,0.9859 -6.3503,1.7851 -0.5267,-1.0713 -1.1041,-2.135 -1.6097,-3.2191 -1.2063,-2.588 -2.3408,-5.2137 -3.4238,-7.8722 -1.083,-2.6583 -2.1175,-5.3515 -3.0728,-8.077 -0.9553,-2.7254 -1.8394,-5.4928 -2.6631,-8.2819 -0.8237,-2.7892 -1.5654,-5.5786 -2.2533,-8.4282 -0.6881,-2.8494 -1.3245,-5.7557 -1.8729,-8.6623 -0.3368,-1.7837 -0.5954,-3.5807 -0.8781,-5.3847 3.9053,-1.773 6.2041,-2.1948 6.2041,-2.1948 l 32.8057,-4.9457 c -0.212,-1.4095 -0.3011,-2.8278 -0.4682,-4.2435 l 37.6635,0 c 0.3258,2.942 0.761,5.8645 1.3462,8.721 0.642,3.1337 1.4317,6.203 2.3704,9.2183 0.9387,3.0153 2.0291,5.9864 3.2484,8.8671 1.2192,2.8809 2.555,5.669 4.0384,8.399 1.4836,2.73 3.0971,5.3971 4.8288,7.96 1.7316,2.5629 3.5967,5.0243 5.5602,7.4039 1.9635,2.3796 4.0249,4.6678 6.2041,6.848 2.1793,2.1801 4.4692,4.2689 6.8479,6.2333 2.3788,1.9644 4.8712,3.7985 7.4333,5.531 2.562,1.7325 5.2015,3.3444 7.9307,4.8287 2.7292,1.4843 5.5481,2.8479 8.4282,4.0677 2.88,1.2199 5.8231,2.3092 8.8378,3.2484 3.0149,0.9393 6.0851,1.7281 9.2184,2.3704 3.1334,0.6424 6.3339,1.134 9.5696,1.4633 3.2356,0.3293 6.5111,0.4975 9.8329,0.4975 3.3218,0 6.597,-0.1682 9.8329,-0.4975 3.2358,-0.3293 6.4358,-0.8209 9.5695,-1.4633 3.1337,-0.6423 6.203,-1.4311 9.2183,-2.3704 3.0154,-0.9392 5.9865,-2.0285 8.8672,-3.2484 2.8808,-1.2198 5.669,-2.5834 8.399,-4.0677 2.7299,-1.4843 5.3971,-3.0962 7.96,-4.8287 2.5628,-1.7325 5.0242,-3.5666 7.4039,-5.531 2.3796,-1.9644 4.6677,-4.0532 6.8479,-6.2333 2.1802,-2.1802 4.2689,-4.4684 6.2334,-6.848 1.9644,-2.3796 3.7985,-4.841 5.531,-7.4039 1.7324,-2.5629 3.3443,-5.23 4.8286,-7.96 1.4844,-2.73 2.8479,-5.5181 4.0678,-8.399 1.2199,-2.8807 2.3091,-5.8518 3.2484,-8.8671 0.9392,-3.0153 1.728,-6.0846 2.3704,-9.2183 0.5856,-2.8565 1.0202,-5.779 1.3462,-8.721 l 39.595,0 c -0.2468,2.0896 -0.4458,4.1869 -0.7901,6.2628 l 32.7471,5.4431 c 0,0 2.336,0.4488 6.2625,2.3119 -0.4472,2.5893 -0.9609,5.1736 -1.5217,7.7259 -0.616,2.8037 -1.2988,5.5558 -2.0485,8.3111 -0.7498,2.7554 -1.5487,5.5202 -2.429,8.2233 -0.8802,2.703 -1.8311,5.3717 -2.8386,8.0186 -1.0074,2.6466 -2.0877,5.2565 -3.2192,7.843 -1.1312,2.5863 -2.3184,5.1447 -3.5702,7.6672 -0.3132,0.631 -0.6744,1.2461 -0.9951,1.8729 -4.2204,-0.8624 -6.3211,-1.8729 -6.3211,-1.8729 l -29.4401,-15.3054 c -6.5248,12.5635 -15.0551,24.0687 -25.1384,34.0055 l 23.2947,23.675 c 0,0 1.5882,1.717 3.658,5.5018 -1.8444,1.7933 -3.725,3.5554 -5.648,5.2676 -2.0958,1.8657 -4.2523,3.7067 -6.4383,5.4725 -2.1859,1.7658 -4.3991,3.4594 -6.6723,5.1214 -2.2733,1.6618 -4.579,3.2745 -6.9356,4.8286 -2.3569,1.5542 -4.7618,3.0646 -7.1992,4.5068 -2.4372,1.4421 -4.919,2.8291 -7.4331,4.1555 -0.7353,0.3878 -1.5122,0.7054 -2.2535,1.0828 -2.9138,-3.1835 -4.0385,-5.2383 -4.0385,-5.2383 l -14.8372,-29.6744 c -12.6633,6.3291 -26.3283,10.6471 -40.3265,12.7594 l 4.9457,32.8349 c 0,0 0.2838,2.3171 -0.2634,6.5846 -0.3359,0.049 -0.6584,0.1298 -0.9951,0.1755 -2.9601,0.4048 -5.9445,0.7083 -8.9548,0.9658 -3.0108,0.2574 -6.0277,0.4524 -9.0135,0.5559 -2.9861,0.103 -5.939,0.1342 -8.8965,0.088 z m -1e-4,-347.1522 c -2.9578,0.047 -5.9127,0.1865 -8.8379,0.3804 -2.9249,0.1943 -5.8323,0.452 -8.7208,0.7902 -2.3301,0.2727 -4.6321,0.6306 -6.9358,0.995 -0.4866,4.2905 -0.1756,6.6138 -0.1756,6.6138 l 5.4432,32.7471 c -13.9647,2.323 -27.5846,6.8548 -40.151,13.3739 l -15.2761,-29.4695 c 0,0 -1.1466,-2.0197 -4.0971,-5.1506 -1.1396,0.6032 -2.2992,1.1576 -3.4239,1.7852 -2.4542,1.369 -4.8758,2.8191 -7.2576,4.3018 -2.382,1.4828 -4.7177,3.0014 -7.0235,4.5946 -2.3057,1.5933 -4.5637,3.2746 -6.7894,4.975 -2.2258,1.7005 -4.4135,3.434 -6.5553,5.2384 -2.1418,1.8042 -4.2381,3.6555 -6.2919,5.5602 -1.6169,1.4999 -3.2098,3.0637 -4.7702,4.6239 2.1231,3.7434 3.7167,5.4139 3.7167,5.4139 l 23.675,23.2946 c -9.9321,10.0879 -18.2767,21.7546 -24.6115,34.4152 l -29.7036,-14.8372 c 0,0 -2.1073,-0.9858 -6.3504,-1.7851 -0.5266,1.0713 -1.104,2.1351 -1.6096,3.2191 -1.2064,2.588 -2.3408,5.2138 -3.4239,7.8723 -1.083,2.6583 -2.1174,5.3515 -3.0727,8.077 -0.9553,2.7254 -1.8394,5.4927 -2.6632,8.2818 -0.8236,2.7893 -1.5653,5.5787 -2.2533,8.4282 -0.688,2.8495 -1.3244,5.7557 -1.8729,8.6623 -0.3367,1.7837 -0.5953,3.5807 -0.878,5.3847 3.9053,1.7731 6.2041,2.1948 6.2041,2.1948 l 32.8057,4.9458 c -0.212,1.4095 -0.3011,2.8278 -0.4682,4.2434 l 37.6635,0 c 0.3258,-2.9419 0.761,-5.8644 1.3461,-8.7209 0.6421,-3.1337 1.4318,-6.203 2.3704,-9.2183 0.9388,-3.0154 2.0292,-5.9864 3.2484,-8.8672 1.2192,-2.8808 2.5551,-5.669 4.0385,-8.399 1.4835,-2.7299 3.097,-5.397 4.8288,-7.9599 1.7316,-2.5629 3.5967,-5.0244 5.5602,-7.4039 1.9635,-2.3797 4.0249,-4.6678 6.2041,-6.848 2.1793,-2.1801 4.4692,-4.2689 6.8479,-6.2333 2.3788,-1.9645 4.8712,-3.7985 7.4333,-5.531 2.5619,-1.7326 5.2015,-3.3444 7.9307,-4.8287 2.7292,-1.4843 5.5481,-2.8479 8.4282,-4.0678 2.88,-1.2199 5.8231,-2.3091 8.8378,-3.2484 3.0149,-0.9392 6.0851,-1.728 9.2184,-2.3704 3.1334,-0.6424 6.3339,-1.1339 9.5696,-1.4633 3.2356,-0.3292 6.5111,-0.4974 9.8329,-0.4974 3.3218,0 6.597,0.1682 9.8329,0.4974 3.2358,0.3294 6.4358,0.8209 9.5695,1.4633 3.1337,0.6424 6.203,1.4312 9.2183,2.3704 3.0154,0.9393 5.9865,2.0285 8.8672,3.2484 2.8808,1.2199 5.669,2.5835 8.399,4.0678 2.7299,1.4843 5.3971,3.0961 7.96,4.8287 2.5628,1.7325 5.0242,3.5665 7.4039,5.531 2.3796,1.9644 4.6677,4.0532 6.8479,6.2333 2.1802,2.1802 4.2689,4.4683 6.2334,6.848 1.9644,2.3795 3.7985,4.841 5.531,7.4039 1.7324,2.5629 3.3443,5.23 4.8286,7.9599 1.4844,2.73 2.8479,5.5182 4.0678,8.399 1.2199,2.8808 2.3091,5.8518 3.2484,8.8672 0.9392,3.0153 1.728,6.0846 2.3704,9.2183 0.5856,2.8565 1.0202,5.779 1.3462,8.7209 l 39.595,0 c -0.2468,-2.0895 -0.4458,-4.1868 -0.7901,-6.2627 l 32.7471,-5.4431 c 0,0 2.336,-0.4489 6.2625,-2.312 -0.4472,-2.5892 -0.9609,-5.1736 -1.5217,-7.7258 -0.616,-2.8037 -1.2988,-5.5558 -2.0485,-8.3112 -0.7498,-2.7553 -1.5487,-5.5202 -2.429,-8.2233 -0.8802,-2.7029 -1.8311,-5.3717 -2.8386,-8.0186 -1.0074,-2.6465 -2.0877,-5.2565 -3.2192,-7.8429 -1.1312,-2.5863 -2.3184,-5.1448 -3.5702,-7.6672 -0.3132,-0.631 -0.6744,-1.2462 -0.9951,-1.873 -4.2204,0.8624 -6.3211,1.873 -6.3211,1.873 l -29.4401,15.3053 c -6.5248,-12.5634 -15.0551,-24.0686 -25.1384,-34.0055 l 23.2947,-23.675 c 0,0 1.5882,-1.7169 3.658,-5.5017 -1.8444,-1.7934 -3.725,-3.5554 -5.648,-5.2677 -2.0958,-1.8657 -4.2523,-3.7067 -6.4383,-5.4725 -2.1859,-1.7658 -4.3991,-3.4594 -6.6723,-5.1213 -2.2733,-1.6618 -4.579,-3.2746 -6.9356,-4.8286 -2.3569,-1.5542 -4.7618,-3.0646 -7.1992,-4.5068 -2.4372,-1.4422 -4.919,-2.8292 -7.4331,-4.1556 -0.7353,-0.3878 -1.5122,-0.7053 -2.2535,-1.0827 -2.9138,3.1835 -4.0385,5.2383 -4.0385,5.2383 l -14.8372,29.6743 c -12.6633,-6.329 -26.3283,-10.6471 -40.3265,-12.7594 l 4.9457,-32.8348 c 0,0 0.2838,-2.3171 -0.2634,-6.5846 -0.3359,-0.049 -0.6584,-0.1298 -0.9951,-0.1755 -2.9601,-0.4049 -5.9445,-0.7084 -8.9548,-0.9658 -3.0108,-0.2574 -6.0277,-0.4524 -9.0135,-0.556 -2.9861,-0.1029 -5.939,-0.1342 -8.8965,-0.088 z"
         style="fill:none;stroke:#000000;stroke-width:20.36499977;stroke-miterlimit:4;stroke-opacity:1;stroke-dasharray:none"
         id="path3831" />
      <path
         inkscape:connector-curvature="0"
         id="path3874"
         d="m 1808.3286,1846.2566 c -106.0359,-185.5629 -212.5201,-429.6298 -436.0332,-524.2291 0,-93.3162 55.8031,-199.9996 82.976,-253.1832 246.0098,205.6145 377.9356,377.3803 488.4562,672.1019"
         style="fill:none;stroke:#000000;stroke-width:10;stroke-linecap:butt;stroke-linejoin:miter;stroke-miterlimit:4;stroke-opacity:1;stroke-dasharray:none" />
      <path
         inkscape:connector-curvature="0"
         id="path3880"
         d="m 1405.1405,1331.7404 c -65.5507,54.1684 -128.0324,95.4278 -159.4699,150.4433 2.3283,38.7443 27.2531,53.7658 45.133,75.2217 -56.1696,43.5045 -94.2461,69.962 -132.3901,123.3635 -67.5781,80.8244 -78.6081,163.4858 -114.3369,258.7625 -9.219,33.7355 11.2899,41.6981 33.0975,54.1596 34.6157,4.7934 64.3185,-12.8362 78.2305,-18.0532 16.7449,-7.0393 36.5377,1.6122 54.1596,6.0177 34.3923,-4.2726 34.0617,-2.5674 57.1685,0"
         style="fill:none;stroke:#000000;stroke-width:10;stroke-miterlimit:4;stroke-opacity:1;stroke-dasharray:none" />
      <path
         inkscape:connector-curvature="0"
         id="path3882"
         d="m 1185.4933,1975.6378 c 28.0585,-9.3528 75.5973,-55.6694 9.0266,-96.2837 16.3638,-34.0094 26.1576,-52.4512 45.133,-75.2217 -9.0185,44.3484 7.183,70.3054 18.0532,99.2926 64.1828,100.3196 171.5054,113.9263 171.5054,264.7802"
         style="fill:none;stroke:#000000;stroke-width:10;stroke-miterlimit:4;stroke-opacity:1;stroke-dasharray:none" />
      <path
         inkscape:connector-curvature="0"
         id="path3884"
         d="m 1254.6972,1975.6378 c 102.4888,29.4314 161.6488,92.6525 174.5143,195.5763 29.9096,-102.7246 62.5922,-201.4831 120.3546,-270.7979 69.6192,-47.2368 135.4722,-103.072 216.6384,-123.3636"
         style="fill:none;stroke:#000000;stroke-width:10;stroke-miterlimit:4;stroke-opacity:1;stroke-dasharray:none" />
      <path
         inkscape:connector-curvature="0"
         id="path3886"
         d="m 1429.2115,2165.1964 c 52.1287,-58.0807 96.3386,-114.3761 159.4699,-159.4699 57.058,-17.2711 124.4747,-26.8426 174.5142,-33.0976"
         style="fill:none;stroke:#000000;stroke-width:10;stroke-miterlimit:4;stroke-opacity:1;stroke-dasharray:none" />
      <path
         inkscape:connector-curvature="0"
         id="path3888"
         d="m 1173.4578,1972.6289 c -15.5675,35.2037 -30.0886,83.2489 -30.0886,108.3192"
         style="fill:none;stroke:#000000;stroke-width:10;stroke-miterlimit:4;stroke-opacity:1;stroke-dasharray:none" />
      <path
         inkscape:connector-curvature="0"
         id="path3892"
         d="m 1254.6972,1506.2547 c 102.1997,-12.775 248.8596,-66.1918 333.9842,-15.0444 -91.553,-41.4251 -212.4232,51.1508 -300.8866,51.1508"
         style="fill:none;stroke:#000000;stroke-width:10;stroke-miterlimit:4;stroke-opacity:1;stroke-dasharray:none" />
      <path
         inkscape:connector-curvature="0"
         id="path3894"
         d="m 1326.91,1536.3433 c 80.0679,20.017 163.4421,-37.1036 246.727,6.0178 -70.7773,-3.4467 -119.8329,35.1934 -144.4255,78.2305 33.5546,4.0371 47.1942,20.2724 66.195,36.1064 39.4691,-18.1787 71.8113,-28.5124 99.2926,-48.1419 -13.2788,33.4298 -23.6005,52.9052 -33.0975,78.2305 -81.3811,4.4074 -127.0554,51.1508 -213.6295,51.1508"
         style="fill:none;stroke:#000000;stroke-width:10;stroke-miterlimit:4;stroke-opacity:1;stroke-dasharray:none" />
      <path
         inkscape:connector-curvature="0"
         id="path3896"
         d="m 1293.8125,1563.4231 c 27.1627,20.3083 33.8975,39.4735 51.1507,60.1774 -4.1395,38.8668 -4.2531,84.942 9.0266,120.3546"
         style="fill:none;stroke:#000000;stroke-width:10;stroke-miterlimit:4;stroke-opacity:1;stroke-dasharray:none" />
      <path
         inkscape:connector-curvature="0"
         id="path3898"
         d="m 1143.3692,2068.9127 c 4.5706,21.0776 14.0002,31.0339 24.0709,45.133"
         style="fill:none;stroke:#000000;stroke-width:10;stroke-miterlimit:4;stroke-opacity:1;stroke-dasharray:none" />
      <path
         inkscape:connector-curvature="0"
         id="path3900"
         d="m 1167.4401,2102.0102 c 75.9366,-5.4181 127.0386,12.6614 189.5586,36.1064"
         style="fill:none;stroke:#000000;stroke-width:10;stroke-miterlimit:4;stroke-opacity:1;stroke-dasharray:none" />
      <path
         inkscape:connector-curvature="0"
         id="path3904"
         d="m 1347.9721,2129.09 c -0.2688,5.1508 18.7091,27.8669 33.0975,45.133"
         style="fill:none;stroke:#000000;stroke-width:10;stroke-miterlimit:4;stroke-opacity:1;stroke-dasharray:none" />
      <path
         inkscape:connector-curvature="0"
         id="path3906"
         d="m 1173.4578,2099.0013 c -11.7598,-4.1065 -32.7948,15.2669 -48.1418,42.1242 2.4457,12.807 8.5754,24.7858 15.0443,36.1063 27.7426,29.3062 50.1005,45.468 69.2039,72.2128"
         style="fill:none;stroke:#000000;stroke-width:10;stroke-miterlimit:4;stroke-opacity:1;stroke-dasharray:none" />
      <path
         inkscape:connector-curvature="0"
         id="path3912"
         d="m 1128.3248,2141.1255 c 49.4619,48.1491 113.4825,59.9637 174.5143,75.2216 -19.7552,27.4776 -24.0709,49.8134 -24.0709,78.2305 -29.5137,-13.5401 -58.956,-22.0377 -75.2217,-24.0709"
         style="fill:none;stroke:#000000;stroke-width:10;stroke-miterlimit:4;stroke-opacity:1;stroke-dasharray:none" />
      <path
         inkscape:connector-curvature="0"
         id="path3914"
         d="m 1206.5554,2252.4535 c -3.4594,37.2176 -4.8955,35.6469 -24.071,69.2039 18.3037,56.6379 63.7964,86.3576 90.266,96.2837 48.0817,8.7261 94.7553,-16.1666 138.4079,-27.0798 75.7739,-21.2405 132.6267,-51.962 201.594,-69.2039 51.9192,-107.5983 162.8517,-176.5117 201.594,-279.8245"
         style="fill:none;stroke:#000000;stroke-width:10;stroke-miterlimit:4;stroke-opacity:1;stroke-dasharray:none" />
      <path
         inkscape:connector-curvature="0"
         id="path3922"
         d="m 1387.0873,2402.8968 c 41.9293,34.8369 104.8523,133.8452 150.4434,213.6295 60.8836,54.8784 108.8484,84.8834 153.4521,138.4079 -6.2633,-28.4874 3.5648,-47.3567 9.0266,-69.204"
         style="fill:none;stroke:#000000;stroke-width:10;stroke-miterlimit:4;stroke-opacity:1;stroke-dasharray:none" />
      <path
         inkscape:connector-curvature="0"
         id="path3924"
         d="m 1188.5022,2336.7018 c 21.7784,17.8832 36.3393,30.176 60.1773,39.1152 128.9449,6.6172 231.7079,-41.7511 355.0462,-57.1684"
         style="fill:none;stroke:#000000;stroke-width:10;stroke-miterlimit:4;stroke-opacity:1;stroke-dasharray:none" />
      <path
         inkscape:connector-curvature="0"
         id="path3926"
         d="m 1459.3001,2372.8082 c 81.1695,11.4097 147.4906,23.7018 222.6561,33.0975 17.8991,33.2091 18.0532,83.5976 18.0532,117.3458"
         style="fill:none;stroke:#000000;stroke-width:10;stroke-miterlimit:4;stroke-opacity:1;stroke-dasharray:none" />
      <path
         inkscape:connector-curvature="0"
         id="path3928"
         d="m 1700.0094,2508.2071 c -8.7929,55.4224 -38.6799,106.0529 -57.1684,138.4079"
         style="fill:none;stroke:#000000;stroke-width:10;stroke-miterlimit:4;stroke-opacity:1;stroke-dasharray:none" />
      <path
         inkscape:connector-curvature="0"
         id="path3934"
         d="m 1642.841,2640.5972 c -50.765,-15.1649 -87.6945,-29.049 -126.3724,-51.1507"
         style="fill:none;stroke:#000000;stroke-width:10;stroke-miterlimit:4;stroke-opacity:1;stroke-dasharray:none" />
      <path
         inkscape:connector-curvature="0"
         id="path3938"
         d="m 1486.3799,1085.0134 c 181.9677,-183.66339 392.445,-409.852 643.8974,-535.57819"
         style="fill:none;stroke:#000000;stroke-width:10;stroke-miterlimit:4;stroke-opacity:1;stroke-dasharray:none" />
      <path
         sodipodi:nodetypes="ccc"
         inkscape:connector-curvature="0"
         id="path3950"
         d="m 2119.0794,549.71244 c 259.2215,-65.00985 517.8453,-161.0041 795.7185,-195.73826 -191.9408,78.3618 -302.3884,262.59471 -449.9348,385.55007"
         style="fill:none;stroke:#000000;stroke-width:10;stroke-miterlimit:4;stroke-opacity:1;stroke-dasharray:none" />
      <path
         inkscape:connector-curvature="0"
         id="path3958"
         d="m 1548.8853,1153.9479 c 416.2249,-196.87445 835.5989,-480.83526 1399.9541,-480.83526 289.2249,58.3005 625.3016,101.3966 872.3117,242.54523 -262.979,-16.8131 -481.9333,65.06304 -651.0424,161.69683"
         style="fill:none;stroke:#000000;stroke-width:10;stroke-miterlimit:4;stroke-opacity:1;stroke-dasharray:none" />
      <path
         inkscape:connector-curvature="0"
         id="path3960"
         d="m 1655.2648,1251.817 c 453.5531,-61.0364 1004.6228,-226.8984 1514.8439,-170.2071 168.9304,60.906 339.7214,152.609 468.0697,259.5659 -204.552,-47.0784 -443.1103,10.9238 -599.9803,89.3588"
         style="fill:none;stroke:#000000;stroke-width:10;stroke-miterlimit:4;stroke-opacity:1;stroke-dasharray:none" />
      <path
         inkscape:connector-curvature="0"
         id="path3968"
         d="m 1719.0925,1345.431 c 438.7994,-36.2053 970.2093,-43.0731 1323.3608,89.3588 133.8687,15.4404 268.1004,111.8641 370.2006,170.2071 -202.2998,-10.3578 -428.1284,30.6701 -553.1733,102.1243"
         style="fill:none;stroke:#000000;stroke-width:10;stroke-miterlimit:4;stroke-opacity:1;stroke-dasharray:none" />
      <path
         inkscape:connector-curvature="0"
         id="path3972"
         d="m 1816.9616,1473.0864 c 442.7182,166.6277 1034.5526,123.1443 1387.1885,417.0076"
         style="fill:none;stroke:#000000;stroke-width:10;stroke-miterlimit:4;stroke-opacity:1;stroke-dasharray:none" />
      <path
         inkscape:connector-curvature="0"
         id="path3974"
         d="m 3221.1708,1898.6043 c -198.6357,3.8943 -406.4237,51.0622 -582.9595,51.0622"
         style="fill:none;stroke:#000000;stroke-width:10;stroke-miterlimit:4;stroke-opacity:1;stroke-dasharray:none" />
      <path
         inkscape:connector-curvature="0"
         id="path3980"
         d="m 1893.5549,1617.7625 c 240.3787,110.5955 568.4752,184.3772 765.9323,348.9247 112.0748,86.6136 181.7193,224.3949 238.29,323.3936 -127.2686,-53.9224 -257.1382,-102.5811 -391.4765,-136.1657"
         style="fill:none;stroke:#000000;stroke-width:10;stroke-miterlimit:4;stroke-opacity:1;stroke-dasharray:none" />
      <path
         inkscape:connector-curvature="0"
         id="path3984"
         d="m 2102.0586,1843.287 c 129.3236,76.4464 334.5154,213.3395 451.0491,353.1799 65.3519,99.5558 111.5793,183.5621 157.4416,263.8211 -110.5152,-48.7058 -215.0685,-140.7096 -348.9247,-157.4416"
         style="fill:none;stroke:#000000;stroke-width:10;stroke-miterlimit:4;stroke-opacity:1;stroke-dasharray:none" />
      <path
         inkscape:connector-curvature="0"
         id="path3986"
         d="m 2102.0586,1958.1768 c 113.6751,123.3573 198.9108,232.1402 268.0764,353.1799 35.8031,75.5341 64.3011,150.825 80.8484,217.0142"
         style="fill:none;stroke:#000000;stroke-width:10;stroke-miterlimit:4;stroke-opacity:1;stroke-dasharray:none" />
      <path
         inkscape:connector-curvature="0"
         id="path3992"
         d="m 2446.7282,2519.8605 c -38.8937,-44.2566 -190.483,-131.339 -280.8419,-182.9727"
         style="fill:none;stroke:#000000;stroke-width:10;stroke-miterlimit:4;stroke-opacity:1;stroke-dasharray:none" />
      <path
         inkscape:connector-curvature="0"
         id="path3996"
         d="m 2063.762,1890.094 c 1.1559,14.5466 6.7005,33.5024 8.5104,42.5518"
         style="fill:none;stroke:#000000;stroke-width:10;stroke-miterlimit:4;stroke-opacity:1;stroke-dasharray:none" />
      <path
         inkscape:connector-curvature="0"
         id="path4000"
         d="m 1942.4062,2041.2812 0,1076.9412 38.4376,0 0,-1076.9412 -38.4376,0 z"
         style="font-size:medium;font-style:normal;font-variant:normal;font-weight:normal;font-stretch:normal;text-indent:0;text-align:start;text-decoration:none;line-height:normal;letter-spacing:normal;word-spacing:normal;text-transform:none;direction:ltr;block-progression:tb;writing-mode:lr-tb;text-anchor:start;baseline-shift:baseline;color:#000000;fill:#000000;fill-opacity:1;stroke:none;stroke-width:38.43215179;marker:none;visibility:visible;display:inline;overflow:visible;enable-background:accumulate;font-family:Sans;-inkscape-font-specification:Sans" />
      <path
         inkscape:connector-curvature="0"
         id="path4002"
         d="m 1860.4062,2050.3438 -37.5,0.7372 7.2813,364.9792 -4.125,6.1128 -0.75,1.1058 -0.5937,1.198 -151.625,312.6068 -1.8438,3.8396 0.031,4.2697 3.6876,370.7541 37.5,-0.3378 -3.6563,-366.5152 149.125,-307.4772 6.7187,-9.8908 3.25,-4.8226 -0.125,-5.7748 -7.375,-370.7848 z"
         style="font-size:medium;font-style:normal;font-variant:normal;font-weight:normal;font-stretch:normal;text-indent:0;text-align:start;text-decoration:none;line-height:normal;letter-spacing:normal;word-spacing:normal;text-transform:none;direction:ltr;block-progression:tb;writing-mode:lr-tb;text-anchor:start;baseline-shift:baseline;color:#000000;fill:#000000;fill-opacity:1;stroke:none;stroke-width:37.5;marker:none;visibility:visible;display:inline;overflow:visible;enable-background:accumulate;font-family:Sans;-inkscape-font-specification:Sans" />
      <path
         inkscape:connector-curvature="0"
         id="path4004"
         d="m 1959.9902,2524.0801 -129.4333,218.1876 3.6981,173.8105"
         style="fill:none;stroke:#000000;stroke-width:37.5;stroke-linecap:butt;stroke-linejoin:miter;stroke-miterlimit:4;stroke-opacity:1;stroke-dasharray:none" />
      <path
         inkscape:connector-curvature="0"
         id="path4006"
         d="m 1959.9902,2220.8364 107.2447,170.1123 7.3962,266.2629"
         style="fill:none;stroke:#000000;stroke-width:37.5;stroke-linecap:butt;stroke-linejoin:miter;stroke-miterlimit:4;stroke-opacity:1;stroke-dasharray:none" />
      <path
         inkscape:connector-curvature="0"
         id="path4008"
         d="m 2015.4616,2061.8183 155.32,281.0552 3.6981,673.0532"
         style="fill:none;stroke:#000000;stroke-width:37.5;stroke-linecap:butt;stroke-linejoin:miter;stroke-miterlimit:4;stroke-opacity:1;stroke-dasharray:none" />
      <path
         inkscape:connector-curvature="0"
         id="path4010"
         d="m 2151.5625,2723.5 -106.4375,130.1467 -3.9375,4.8058 -0.125,6.1194 -3.6563,193.3991 -0.031,0.1493 0,0.1791 0,59.4913 38.3438,0 0,-59.1629 0,-0.3284 3.5312,-186.8918 102.5312,-125.3707 -30.2187,-22.5369 z"
         style="font-size:medium;font-style:normal;font-variant:normal;font-weight:normal;font-stretch:normal;text-indent:0;text-align:start;text-decoration:none;line-height:normal;letter-spacing:normal;word-spacing:normal;text-transform:none;direction:ltr;block-progression:tb;writing-mode:lr-tb;text-anchor:start;baseline-shift:baseline;color:#000000;fill:#000000;fill-opacity:1;stroke:none;stroke-width:38.33164215;marker:none;visibility:visible;display:inline;overflow:visible;enable-background:accumulate;font-family:Sans;-inkscape-font-specification:Sans" />
      <path
         inkscape:connector-curvature="0"
         id="path4012"
         d="m 2187.5312,2472.8438 -31.875,21.9056 124.1876,167.983 0,457.6675 39.125,0 0,-463.6938 0,-6.0263 -3.625,-4.9114 -127.8126,-172.9246 z"
         style="font-size:medium;font-style:normal;font-variant:normal;font-weight:normal;font-stretch:normal;text-indent:0;text-align:start;text-decoration:none;line-height:normal;letter-spacing:normal;word-spacing:normal;text-transform:none;direction:ltr;block-progression:tb;writing-mode:lr-tb;text-anchor:start;baseline-shift:baseline;color:#000000;fill:#000000;fill-opacity:1;stroke:none;stroke-width:39.11989212;marker:none;visibility:visible;display:inline;overflow:visible;enable-background:accumulate;font-family:Sans;-inkscape-font-specification:Sans" />
      <path
         inkscape:connector-curvature="0"
         id="path4125"
         d="m 1369.106,2035.0413 c -22.7356,-23.0215 -51.0299,-40.9182 -82.9556,-52.4711 -19.224,-6.9565 -28.1811,-8.0523 -53.5911,-6.5561 -16.7801,0.988 -30.5093,1.0307 -30.5093,0.095 0,-0.9358 5.8218,-7.8744 12.9374,-15.4191 22.2505,-23.5924 21.9791,-48.455 -0.77,-70.5487 l -13.3911,-13.0053 8.2124,-17.5226 c 4.5169,-9.6375 11.307,-21.6211 15.0891,-26.6302 l 6.8766,-9.1074 2.47,14.6546 c 4.3782,25.9763 16.723,59.7217 28.169,77.002 6.1349,9.262 32.3762,37.2981 58.3141,62.3025 50.47,48.6535 72.6735,72.4527 70.0463,75.0799 -0.8984,0.8983 -10.3024,-7.1447 -20.8978,-17.8734 l 0,0 z"
         style="fill:#000000;fill-opacity:1;stroke:none" />
      <path
         inkscape:connector-curvature="0"
         id="path4127"
         d="m 1446.1744,2134.2401 c 0.022,-12.9715 37.2038,-113.6339 55.3215,-149.7729 6.628,-13.2206 20.3094,-36.6273 30.4031,-52.0147 16.9374,-25.8201 22.4695,-30.8097 71.7532,-64.7167 57.4331,-39.5136 99.5795,-64.0328 129.0744,-75.0905 36.1307,-13.5456 32.9207,-14.389 48.0237,12.6177 14.3271,25.6193 14.856,30.8178 2.4604,24.1839 -4.1084,-2.1988 -9.3283,-3.9977 -11.5997,-3.9977 -5.1089,0 -14.4858,21.409 -20.6179,47.0739 l -4.6204,19.3382 13.5165,3.7543 c 7.434,2.0648 16.4287,3.7635 19.9881,3.7748 3.5594,0.011 6.4716,1.6848 6.4716,3.7188 0,2.1327 11.6023,3.6981 27.4107,3.6981 l 27.4106,0 2.5147,-14.8844 c 3.9677,-23.4845 22.7282,-47.9186 46.2107,-60.186 17.7472,-9.2712 23.5006,-10.4526 45.1423,-9.2692 20.2848,1.1091 27.6759,3.3755 40.5758,12.4419 20.6471,14.5113 36.3507,37.3023 38.9246,56.4921 l 2.0664,15.4056 23.5507,0 c 18.4685,0 23.5506,1.197 23.5506,5.5471 0,4.3619 -5.1362,5.5471 -24.0376,5.5471 -22.6284,0 -24.0376,0.4995 -24.0376,8.5192 0,15.0489 -18.3004,46.1726 -33.8902,57.6375 -52.2851,38.4509 -124.0466,10.2822 -137.9196,-54.1379 l -2.5883,-12.0188 -24.4058,0 c -13.4231,0 -29.5163,1.6065 -35.7625,3.5699 -6.2463,1.9634 -15.9333,4.4913 -21.5266,5.6176 -8.301,1.6714 -10.1698,4.0293 -10.1698,12.8308 0,5.9307 1.6229,15.0518 3.6066,20.2691 1.9836,5.2173 2.342,9.486 0.7964,9.486 -11.0323,0 -120.4163,19.8696 -141.4086,25.6869 -33.2284,9.208 -57.996,28.5892 -119.9705,93.8795 -25.4231,26.7833 -46.221,47.0327 -46.2175,44.9988 z m 501.0417,-157.6094 c 31.2324,-8.6506 49.9242,-32.7053 49.9242,-64.2478 0,-22.3727 -7.0675,-38.2549 -23.4076,-52.6017 -41.2008,-36.1747 -109.8096,-6.2915 -110.6332,48.1873 -0.4958,32.7953 15.4325,57.2192 43.9451,67.3836 17.6467,6.2909 21.6188,6.4173 40.1715,1.2786 l 0,0 z"
         style="fill:#000000;fill-opacity:1;stroke:none" />
      <path
         inkscape:connector-curvature="0"
         id="path4129"
         d="m 1351.7049,1723.2996 c -1.6532,-5.8533 -3.3413,-31.7673 -3.7512,-57.5868 l -0.7454,-46.9445 -13.5046,-18.3969 c -7.4275,-10.1184 -18.8703,-23.2379 -25.4284,-29.1547 -6.5582,-5.9167 -14.0182,-14.3723 -16.5779,-18.7902 -4.5119,-7.7874 -4.0605,-8.0547 14.7924,-8.7602 10.6955,-0.4002 30.5576,-0.245 44.1381,0.3448 13.5804,0.5898 51.4572,-2.603 84.1706,-7.0952 41.8189,-5.7425 66.5928,-7.4058 83.4386,-5.6017 28.5793,3.0606 33.6198,7.6595 11.9557,10.9083 -33.1155,4.9659 -72.6374,30.8323 -95.6512,62.602 -12.5866,17.3754 -13.1113,20.9276 -3.091,20.9276 12.0764,0 32.478,9.9306 48.3995,23.5588 l 14.7814,12.6523 44.3446,-19.7476 c 49.8348,-22.1926 48.0394,-23.354 29.1119,18.8318 l -10.2121,22.7608 -19.9571,2.3456 c -10.9764,1.29 -46.5911,11.5147 -79.1438,22.7215 -32.5527,11.2067 -69.2841,21.4313 -81.6254,22.7212 -22.3259,2.3335 -22.4539,2.2918 -25.4447,-8.2969 l 0,0 z"
         style="fill:#000000;fill-opacity:1;stroke:none" />
      <path
         inkscape:connector-curvature="0"
         id="path4131"
         d="m 1273.0893,1531.7689 c -6.5284,-7.4354 -11.8624,-15.5412 -11.8532,-18.0129 0.027,-7.2475 170.7392,-36.8871 220.02,-38.2005 l 40.6791,-1.0841 -24.0376,5.6209 c -13.2207,3.0916 -53.9922,15.4303 -90.6034,27.4195 -78.2788,25.6341 -92.2024,29.4378 -107.8611,29.4654 -6.4408,0.011 -12.3323,1.8859 -13.0923,4.1656 -0.7599,2.2798 -6.7231,-1.9384 -13.2515,-9.3739 z"
         style="fill:#000000;fill-opacity:1;stroke:none" />
      <path
         inkscape:connector-curvature="0"
         id="path4133"
         d="m 1778.6509,1783.8456 c -68.0589,-123.8197 -122.7993,-213.2269 -162.4559,-265.3383 -63.053,-82.8557 -139.2776,-149.4256 -213.7996,-186.7195 l -27.0874,-13.5556 2.0263,-13.5789 c 1.1144,-7.4683 3.1069,-21.8995 4.4276,-32.0693 3.7308,-28.7277 28.038,-98.9388 51.5316,-148.8483 11.7285,-24.9159 22.5345,-45.3017 24.0133,-45.3017 5.027,0 97.7243,83.5459 145.9885,131.576 47.7165,47.485 116.4879,124.5476 116.4879,130.532 0,1.7162 5.8805,9.3554 13.0677,16.976 16.8338,17.849 76.8818,108.447 101.4107,153.0042 26.2996,47.7738 56.5877,111.872 79.7873,168.8522 l 19.5739,48.0753 -11.6938,0.9982 c -28.9944,2.4752 -29.5393,2.9689 -27.012,24.4725 l 2.2964,19.5386 -12.3424,3.7879 c -11.7513,3.6066 -12.6644,3.1903 -19.0634,-8.6918 -10.2678,-19.0663 -14.2968,-21.1423 -27.6406,-14.2419 -14.4023,7.4477 -40.7238,30.9318 -40.7238,36.3338 0,2.2089 5.1289,9.3079 11.3976,15.7756 10.2006,10.5243 10.884,12.5819 6.5066,19.591 -2.69,4.3075 -5.9872,7.8318 -7.3271,7.8318 -1.3399,0 -14.5561,-22.0499 -29.3694,-48.9998 l 0,0 z"
         style="fill:#000000;fill-opacity:1;stroke:none" />
      <path
         inkscape:connector-curvature="0"
         id="path4135"
         d="m 1658.7647,2715.9391 c -8.1358,-8.4121 -29.7697,-27.7726 -48.0753,-43.0232 -55.5621,-46.2897 -72.1128,-61.0406 -72.1128,-64.271 0,-1.6982 4.5764,-0.7382 10.1698,2.1333 5.5933,2.8716 29.9551,12.2065 54.1371,20.7443 35.0903,12.3892 44.6043,14.5275 47.122,10.5909 12.7973,-20.0096 34.0995,-66.0969 43.9734,-95.1366 11.7478,-34.5508 11.7885,-34.9285 7.7715,-72.1128 -3.9653,-36.7059 -8.6924,-58.7903 -14.518,-67.8263 -1.7632,-2.7349 -42.721,-10.5248 -102.3522,-19.4665 -54.677,-8.1989 -99.8623,-15.3566 -100.4117,-15.9061 -1.557,-1.557 79.1044,-30.9648 105.417,-38.4332 16.7818,-4.7633 25.2272,-9.3544 29.3146,-15.9361 28.1011,-45.2501 51.5816,-76.4163 93.3354,-123.8862 52.9384,-60.1859 81.777,-98.3452 92.9271,-122.9617 7.0497,-15.5636 11.6606,-19.0695 15.9507,-12.128 1.22,1.9739 3.9652,82.4164 6.1005,178.7611 l 3.8824,175.1722 -18.4443,38.502 c -10.1443,21.1761 -42.0732,86.7621 -70.953,145.7467 -28.8797,58.9846 -55.0262,113.4853 -58.1032,121.1126 -3.077,7.6273 -6.662,13.812 -7.9666,13.7436 -1.3046,-0.068 -9.0286,-7.0068 -17.1644,-15.419 z"
         style="fill:#000000;fill-opacity:1;stroke:none" />
      <path
         inkscape:connector-curvature="0"
         id="path4137"
         d="m 1276.6315,2413.5085 c -20.5651,-4.9244 -72.0928,-44.4627 -65.9504,-50.6051 0.7361,-0.7362 9.2693,3.0942 18.9626,8.5119 17.2675,9.651 18.5701,9.8034 64.3545,7.5287 55.0144,-2.7331 80.9223,-7.0742 179.4065,-30.0607 40.4286,-9.4362 76.2077,-16.6364 79.509,-16.0004 12.4824,2.4047 -194.532,73.0684 -230.6756,78.7404 -29.4595,4.6231 -33.4791,4.7892 -45.6066,1.8852 z"
         style="fill:#000000;fill-opacity:1;stroke:none" />
      <path
         inkscape:connector-curvature="0"
         id="path4139"
         d="m 1674.134,3080.0278 c -1.3133,-19.831 -2.3963,-104.2015 -2.4069,-187.4899 l -0.019,-151.4334 -19.415,-18.2881 c -10.6782,-10.0584 -33.5602,-30.0253 -50.8488,-44.3708 -17.2886,-14.3455 -39.521,-33.2453 -49.4054,-41.9995 -17.8008,-15.7655 -39.3489,-42.4182 -39.3489,-48.6704 0,-4.6558 -50.7996,-83.4531 -77.1093,-119.6074 -12.2812,-16.8764 -29.5072,-37.708 -38.2801,-46.2923 l -15.9507,-15.6079 -24.0087,7.6195 c -34.8491,11.0597 -79.9741,13.4373 -96.3105,5.0744 -32.0142,-16.3885 -58.0943,-42.5738 -74.0293,-74.3277 l -11.3341,-22.5858 11.0383,-21.7914 c 6.0711,-11.9852 11.8711,-29.0295 12.8889,-37.876 1.8472,-16.0564 1.7916,-16.1445 -31.5005,-49.9243 -34.1137,-34.6135 -49.6324,-59.5814 -46.0081,-74.0219 1.117,-4.4502 7.884,-14.9294 15.0379,-23.2871 12.8646,-15.0295 12.9421,-15.3259 7.0801,-27.0765 -7.3206,-14.6746 -5.0968,-34.7331 8.3349,-75.1784 5.2777,-15.8921 8.8275,-29.6631 7.8884,-30.6022 -0.9391,-0.9391 -9.8476,1.8391 -19.7968,6.1737 -24.669,10.7477 -59.4883,13.4814 -74.2808,5.8319 -15.8154,-8.1784 -30.7193,-27.0109 -30.6847,-38.773 0.046,-15.5715 50.1994,-161.6167 68.2722,-198.8056 29.3404,-60.3747 81.0415,-122.5654 143.4146,-172.5118 17.7971,-14.2514 32.3584,-27.0849 32.3584,-28.5191 0,-1.434 -4.1868,-6.5406 -9.304,-11.348 -12.3148,-11.5692 -26.0406,-35.7862 -28.9612,-51.0978 -1.889,-9.9026 -0.2528,-15.3502 8.3303,-27.7357 13.8038,-19.9192 63.6901,-67.7809 104.8186,-100.5647 17.7956,-14.185 32.3568,-26.8371 32.3583,-28.1158 0,-1.2787 -4.7727,-4.303 -10.6093,-6.7205 -9.9164,-4.1076 -10.5126,-5.5307 -9.0966,-21.7127 5.7202,-65.372 26.2919,-128.6927 70.3541,-216.5534 l 16.4603,-32.8221 12.762,12.3695 12.7621,12.3695 104.4063,-104.35813 c 66.6685,-66.6377 107.0624,-104.35813 111.7547,-104.35813 5.0417,0 -26.3087,33.7407 -99.8725,107.487 l -107.2208,107.48696 16.6414,14.797 c 9.1528,8.1383 23.6346,20.6457 32.1818,27.7942 l 15.5402,12.9972 270.57,-135.2812 c 226.6008,-113.29718 273.0538,-135.26567 285.8544,-135.18587 14.8782,0.0928 14.3015,0.55462 -21.6964,17.37523 -20.3396,9.50398 -147.1161,72.40355 -281.7257,139.77684 l -244.7447,122.4969 46.4093,45.6343 46.4092,45.6343 89.2417,-13.8518 c 49.0829,-7.6185 160.7998,-27.1459 248.2597,-43.3942 439.5592,-81.6614 555.3632,-99.5363 754.4113,-116.4468 92.2053,-7.8335 295.1059,-8.806 368.0996,-1.7643 l 50.0634,4.8297 23.6859,-13.8819 c 56.057,-32.8541 157.8156,-77.12434 229.3553,-99.78134 109.4026,-34.64842 193.886,-49.31825 305.0928,-52.97682 l 70.2638,-2.31159 -31.4338,-15.50176 c -29.2202,-14.41012 -30.5223,-15.521 -18.4905,-15.77492 16.3266,-0.34457 82.0224,32.43226 80.5188,40.17226 -0.8188,4.21478 -10.7986,5.04775 -52.7831,4.40554 -142.0956,-2.17355 -286.71,25.16604 -427.1299,80.74963 -44.5499,17.6346 -159.0181,73.1942 -159.0181,77.1829 0,1.4681 20.3858,10.7476 45.3017,20.621 61.7586,24.4731 170.8949,77.6016 225.6782,109.8621 90.5051,53.2961 191.511,126.6634 184.303,133.8714 -2.3857,2.3857 -17.4076,1.4896 -43.6313,-2.6026 -130.9569,-20.4359 -282.4132,-4.1631 -431.9911,46.4141 -50.0225,16.9143 -105.3957,40.0735 -105.3957,44.0806 0,1.4621 7.788,3.8263 17.3066,5.2537 61.1594,9.1714 143.6075,47.8605 295.1824,138.5155 l 59.1695,35.3885 -99.8485,2.3447 c -137.589,3.2309 -217.1887,14.0481 -323.5833,43.9735 -64.7771,18.2197 -141.7996,50.695 -129.4333,54.5735 31.4599,9.867 112.6207,43.6913 157.169,65.5012 58.7457,28.7606 135.5049,77.1681 161.3496,101.7535 8.5325,8.1168 17.7391,14.7579 20.459,14.7579 8.2542,0 5.5248,10.0763 -3.3755,12.4615 -4.5764,1.2264 -19.9697,2.254 -34.2074,2.2834 -34.9474,0.072 -81.2829,4.5419 -253.3195,24.4352 -80.3411,9.2902 -173.6579,18.8364 -207.3708,21.2139 l -61.296,4.3226 31.6036,27.8355 c 41.774,36.7933 74.4158,75.643 116.4348,138.5788 35.7109,53.4875 104.2024,171.1296 101.3138,174.0182 -0.8999,0.8999 -36.8642,-12.4739 -79.9206,-29.7195 -99.9301,-40.0256 -270.1355,-98.0725 -287.5685,-98.0725 -1.6209,0 2.206,5.4084 8.5042,12.0188 6.2982,6.6103 28.0305,38.6451 48.2941,71.1883 35.3207,56.7249 126.6102,213.9951 126.6102,218.1194 0,3.3467 -68.9083,-32.415 -131.2824,-68.1324 -32.5432,-18.6353 -74.1468,-41.0805 -92.4523,-49.8782 -34.1108,-16.3938 -99.6541,-39.0902 -112.8858,-39.0902 -7.1718,0 -7.2122,0.4305 -1.3026,13.8678 30.6554,69.7039 63.0102,157.27 69.6869,188.6029 3.532,16.5755 -2.2848,15.5255 -24.4644,-4.4159 -29.9753,-26.9503 -166.3818,-115.0579 -231.5043,-149.533 l -8.3207,-4.4049 0.026,58.3751 0.026,58.3751 64.5425,86.9052 64.5426,86.9052 0.1487,233.9045 0.1478,233.9045 -20.3395,0 -20.3396,0 0,-227.2937 0,-227.2938 -41.6035,-56.1789 -41.6036,-56.1788 -0.9521,233.5483 -0.9521,233.5484 -18.4629,0 -18.4629,0 -0.4772,-32.3584 c -0.2626,-17.7971 -1.5106,-69.7924 -2.7736,-115.5452 l -2.2963,-83.1869 -36.0565,44.238 -36.0564,44.2379 0,121.2315 0,121.2316 -20.7292,0 -20.7292,0 1.3142,-128.5924 1.3142,-128.5923 56.396,-68.9671 56.3959,-68.9671 0,-185.4774 0,-185.4773 -81.8909,-148.5643 c -45.04,-81.7104 -83.3153,-150.1452 -85.0562,-152.0775 -1.7648,-1.9588 -3.1652,34.9128 -3.1652,83.3386 l 0,86.8518 52.0116,82.5361 52.0117,82.5361 3.3282,102.2372 c 1.8306,56.2304 3.3875,117.6304 3.4598,136.4445 l 0.1315,34.2074 -18.1654,0 -18.1654,0 -2.0087,-13.8679 c -1.1047,-7.6273 -3.1062,-66.1583 -4.4478,-130.0688 l -2.4392,-116.201 -31.9336,-50.7739 -31.9337,-50.7739 -0.9406,410.1246 -0.9406,410.1246 -20.3234,0 -20.3235,0 0,-261.4386 0,-261.4387 -45.6851,77.4585 -45.6852,77.4584 1.7849,84.1316 1.785,84.1317 -18.4647,0 -18.4648,0 -2.3517,-17.1576 c -1.2934,-9.4367 -2.3517,-50.304 -2.3517,-90.8163 l 0,-73.6588 64.7167,-108.9289 64.7166,-108.9288 0,-210.7433 0,-210.7433 -19.415,-0.057 c -25.8116,-0.075 -30.0324,-3.2653 -29.2928,-22.1392 0.3329,-8.496 1.381,-16.7024 2.3291,-18.2364 0.9481,-1.5341 -3.8341,-4.495 -10.6271,-6.5798 -11.708,-3.5933 -12.6288,-3.1902 -17.6874,7.7428 -4.5742,9.8862 -4.8329,37.1105 -1.8114,190.6045 2.8565,145.1061 2.615,180.5281 -1.2733,186.7537 -2.6391,4.2256 -38.4056,76.9094 -79.4811,161.5197 l -74.6827,153.8367 1.8592,183.6144 1.8593,183.6144 -18.462,0 -18.4621,0 -2.3876,-36.0565 0,0 z m -11.531,-483.1149 c 20.4903,-43.6243 27.8545,-65.8693 30.2687,-91.4329 1.9062,-20.1849 -3.042,-60.3235 -10.2061,-82.7885 l -3.5379,-11.0943 -107.4454,-15.8848 -107.4453,-15.8847 -32.1695,10.2075 c -17.6932,5.6141 -32.6778,10.497 -33.2991,10.8509 -0.6213,0.3539 10.6549,15.3311 25.0581,33.2828 25.6779,32.004 67.9155,93.6985 92.5654,135.2058 9.6193,16.1978 16.2706,22.7323 29.3313,28.8162 27.8349,12.9661 94.3117,36.259 97.8024,34.2692 1.7883,-1.0194 10.3731,-17.0156 19.0774,-35.5472 z m 758.3361,-145.0119 c -22.1046,-64.534 -50.5463,-128.9129 -74.862,-169.4536 -45.7413,-76.2623 -127.8819,-185.0481 -205.0683,-271.5891 l -34.1829,-38.3257 -7.2317,14.288 c -3.9774,7.8585 -7.7166,14.8432 -8.3092,15.5216 -0.5927,0.6784 -9.064,-2.2992 -18.8253,-6.6171 l -17.7476,-7.8507 -6.5151,8.4662 c -8.4876,11.0294 -8.5182,10.868 4.4148,23.2585 6.1018,5.846 11.0942,12.3277 11.0942,14.4039 0,2.0761 -5.627,9.6694 -12.5045,16.874 l -12.5046,13.0993 71.9651,129.4333 c 39.5807,71.1883 74.1965,134.4682 76.924,140.622 3.8726,8.7378 18.593,19.2453 67.1992,47.9672 68.0302,40.1997 166.987,104.9607 174.8378,114.4202 2.7205,3.2781 5.5598,5.3469 6.3095,4.5972 0.7497,-0.7496 -5.9974,-22.8515 -14.9934,-49.1152 l 0,0 z m 268.5251,-17.1907 c -3.9706,-6.6104 -23.4663,-40.3093 -43.3237,-74.8864 -55.6001,-96.815 -97.4695,-160.5971 -120.9667,-184.2761 -11.767,-11.8579 -21.3945,-22.2414 -21.3945,-23.0744 0,-2.3093 -53.8355,-52.9352 -85.0562,-79.9852 -59.7579,-51.7752 -164.6715,-127.3563 -259.7038,-187.0941 -50.6047,-31.8103 -52.0688,-32.5232 -49.7131,-24.2059 1.0576,3.734 2.9803,12.0556 4.2726,18.4924 2.3317,11.614 2.1969,11.7376 -17.6567,16.1806 -18.3092,4.0974 -19.9459,5.3006 -19.2938,14.1833 1.0996,14.9806 1.294,15.2532 10.8746,15.2532 4.9525,0 13.298,1.6324 18.5455,3.6275 8.5363,3.2455 9.3204,5.0951 7.4462,17.5659 -2.0223,13.456 -0.776,15.4147 36.0014,56.5804 75.0859,84.0451 155.2142,189.3916 198.9633,261.5816 19.0874,31.4957 21.2502,33.7185 35.1319,36.1049 23.379,4.019 80.043,22.9128 110.9265,36.9868 15.5443,7.0838 60.1823,30.9772 99.1955,53.0965 65.5364,37.157 98.6956,55.318 101.7441,55.7243 0.6744,0.09 -2.0225,-5.245 -5.9931,-11.8553 l 0,0 z m -1335.7923,-71.018 c 19.3225,-2.9332 70.9109,-13.568 114.6409,-23.6328 88.2249,-20.3058 131.0945,-28.1572 136.2713,-24.9578 1.8889,1.1674 9.2955,-7.7165 16.4591,-19.742 19.1426,-32.1348 37.1249,-55.3295 87.6402,-113.0444 50.6704,-57.8919 78.6444,-95.4743 89.379,-120.0784 6.4774,-14.8464 6.625,-16.9615 1.4477,-20.7472 -8.3507,-6.1062 -7.2703,-9.7354 7.0217,-23.5878 l 12.7867,-12.3933 -7.4012,-10.3941 -7.4012,-10.394 -16.801,8.1625 c -16.3697,7.953 -16.9316,7.9838 -21.8935,1.198 -2.8009,-3.8305 -5.677,-8.7179 -6.3913,-10.8608 -1.6378,-4.9132 -73.8928,5.3418 -128.1901,18.1939 -32.2694,7.638 -41.8928,11.6669 -58.5335,24.505 -22.4123,17.291 -108.1857,105.3175 -127.1395,130.4791 -14.3414,19.0387 -20.6182,20.7637 -23.659,6.5021 -17.2439,-80.8752 -54.0204,-130.8946 -119.4718,-162.4927 -24.8139,-11.9794 -30.6485,-13.2634 -66.5657,-14.6488 -21.6523,-0.8351 -44.1824,-1.8834 -50.0668,-2.3295 -10.0861,-0.7647 -11.1803,0.6073 -19.1059,23.9553 -14.9054,43.9095 -18.0506,63.2796 -12.2428,75.3972 4.919,10.2632 6.2108,10.7033 34.6728,11.8142 42.4367,1.6563 87.3519,9.8653 128.6846,23.5193 33.8064,11.1676 36.8499,13.0275 50.7046,30.9858 24.5437,31.8132 17.9363,39.1895 -8.0678,9.0067 -14.2545,-16.5453 -19.7704,-19.9016 -48.6616,-29.6102 -57.5072,-19.3246 -130.4309,-27.7151 -141.8276,-16.3184 -4.0665,4.0665 -6.9997,4.5751 -10.3498,1.7948 -3.4817,-2.8896 -7.2579,-0.4937 -14.7933,9.3857 l -10.1183,13.2657 7.5813,8.0699 c 20.2478,21.5528 72.3211,44.1952 137.4299,59.757 15.2546,3.646 28.3131,7.1133 29.0188,7.7052 0.7057,0.5919 -3.7472,11.593 -9.8954,24.447 -6.1481,12.8539 -12.2321,32.7665 -13.52,44.2502 l -2.3414,20.8794 -35.5724,-12.387 -35.5725,-12.3869 -10.4357,20.6889 c -5.7396,11.3789 -10.4357,23.6429 -10.4357,27.2532 0,6.6774 17.292,22.103 40.679,36.2884 10.9108,6.6179 18.7507,7.8495 49.9243,7.8428 20.3395,0 52.7903,-2.4079 72.1129,-5.3412 z m -77.9659,-98.3547 c 2.2029,-10.2713 6.5011,-23.5019 9.5517,-29.4011 6.8875,-13.3188 7.0208,-18.4893 0.4769,-18.4893 -10.0337,0 -79.9384,-21.6243 -100.8433,-31.1949 -11.7476,-5.3782 -26.8379,-13.9574 -33.5341,-19.0648 -23.1406,-17.6502 -12.039,-0.8575 24.7498,37.4374 32.0775,33.3908 36.7581,39.8663 35.6563,49.3295 -1.2192,10.4708 -0.2494,11.2433 25.0184,19.9282 14.4578,4.9694 28.2291,9.2816 30.603,9.5827 2.3739,0.3011 6.1185,-7.8563 8.3213,-18.1277 l 0,0 z m 1575.6784,-44.9686 c -78.9638,-136.6525 -132.7529,-201.8531 -221.6336,-268.6539 -102.7984,-77.261 -196.7444,-121.1536 -506.8752,-236.8175 -76.2732,-28.4462 -156.0022,-59.3201 -177.1756,-68.6087 -21.1734,-9.2886 -38.9028,-16.4611 -39.3987,-15.939 -0.4959,0.5221 7.675,22.191 18.1575,48.1531 17.3016,42.851 20.0822,47.484 30.1534,50.2427 10.7017,2.9313 11.0575,3.7163 10.0545,22.1832 -0.958,17.637 -0.284,19.4316 8.5615,22.7947 12.8676,4.8922 11.7152,5.5171 20.0861,-10.8911 4.0801,-7.9978 9.1921,-15.6377 11.3598,-16.9774 4.767,-2.9461 40.9293,18.4138 53.6456,31.6867 l 9.1355,9.5354 -13.2467,15.4759 c -13.2004,15.4217 -13.2225,15.5067 -6.3154,24.2876 6.9167,8.7932 6.9582,8.7975 19.6928,2.0161 17.4558,-9.2954 25.114,-8.7506 30.0759,2.1395 2.3168,5.0849 5.619,9.2453 7.3382,9.2453 4.4616,0 112.3742,67.9473 158.4032,99.7387 86.2384,59.5636 160.7439,119.2809 229.8464,184.2253 28.1937,26.4973 33.1129,29.5958 56.7559,35.7504 65.0605,16.9359 207.8358,66.4032 297.6966,103.1429 17.2886,7.0684 32.0605,12.2362 32.8265,11.4839 0.7659,-0.7522 -12.349,-25.1484 -29.1442,-54.2138 l 0,0 z M 1494.0228,1978.9201 c 12.2308,-24.4074 29.4571,-53.5299 38.2807,-64.7167 28.3394,-35.929 161.4665,-121.7168 212.7054,-137.0684 l 15.0936,-4.5221 -5.8322,-11.4874 c -46.7654,-92.1107 -151.9261,-254.4293 -171.688,-265.0055 -14.8841,-7.9658 -46.6715,-11.1988 -72.328,-7.3564 -32.0955,4.8068 -146.5699,42.2046 -134.5204,43.9468 4.7922,0.6928 27.6046,-1.4743 50.6945,-4.8158 57.7041,-8.3509 101.4292,-8.2157 126.9257,0.3923 29.5178,9.9656 29.1336,18.0885 -0.9885,20.9014 -38.6787,3.6118 -63.6953,15.1909 -91.2682,42.2442 l -24.2184,23.762 14.2661,4.9799 c 7.8464,2.739 20.6459,10.1069 28.4434,16.3731 7.7975,6.2662 15.8644,11.3931 17.9263,11.3931 6.6088,0 69.3024,-28.7345 87.7629,-40.2246 9.8134,-6.108 18.3457,-10.6022 18.9607,-9.9872 0.6151,0.6151 -7.739,21.7332 -18.5645,46.9291 l -19.6829,45.8108 -29.4241,5.8342 c -16.1833,3.2089 -49.3938,12.9125 -73.8012,21.5637 -41.7321,14.7918 -88.3229,26.2245 -106.871,26.2245 -11.731,0 -18.331,-28.282 -18.628,-79.8241 -0.2216,-38.4531 -0.8633,-41.899 -10.3529,-55.5936 -5.5642,-8.0297 -16.5301,-20.8619 -24.3686,-28.5161 l -14.2519,-13.9166 -37.0012,29.5344 c -41.1067,32.8114 -63.6355,56.135 -97.0315,100.455 -31.3953,41.6646 -51.3314,84.774 -82.2416,177.8369 -29.6528,89.2769 -29.7995,91.9149 -5.9494,106.9443 14.9757,9.4371 44.0918,7.745 71.6079,-4.1614 9.9804,-4.3186 25.6349,-8.2314 34.7877,-8.6951 29.3643,-1.4877 48.0753,-18.3482 48.0753,-43.3207 0,-12.0815 -2.5029,-16.6138 -16.3926,-29.6845 l -16.3925,-15.426 11.0099,-21.8105 c 15.0295,-29.7734 36.0394,-58.3236 41.3967,-56.2539 2.8107,1.0858 4.5436,11.4335 4.7669,28.4649 0.6629,50.5581 23.1208,88.2923 87.3398,146.7501 65.0374,59.2028 87.9438,91.8002 96.6311,137.5131 l 4.0385,21.2503 19.4234,-56.1702 c 10.6829,-30.8936 29.4304,-76.1399 41.6611,-100.5473 z m 447.0613,75.3042 -1.2642,-18.9973 22.1885,-6.3734 c 12.2038,-3.5054 24.9985,-7.5765 28.4327,-9.0468 4.8409,-2.0726 8.165,1.1029 14.7924,14.1313 l 8.5483,16.8047 12.2634,-7.7692 12.2635,-7.7692 -13.5036,-13.8288 -13.5035,-13.829 12.3344,-16.2564 c 6.7839,-8.941 14.8979,-20.1701 18.0311,-24.9535 l 5.6967,-8.6971 15.42,7.8667 c 8.481,4.3267 16.1555,7.8667 17.0546,7.8667 1.3765,0 9.7543,-20.9756 9.7543,-24.4219 0,-0.6213 -6.2405,-2.1281 -13.8679,-3.3483 -7.6273,-1.2203 -16.7575,-3.7919 -20.2893,-5.7147 -13.1022,-7.1333 -19.2989,-3.8727 -26.6633,14.0299 -8.9084,21.656 -31.9843,47.1802 -51.8052,57.3017 -21.2877,10.8706 -58.5949,12.9114 -83.6848,4.5779 -24.463,-8.1253 -55.5331,-37.5768 -62.456,-59.2025 -2.5804,-8.0608 -5.882,-15.9641 -7.3369,-17.5629 -3.9832,-4.3776 -51.9327,5.6918 -51.9327,10.9057 0,2.4547 1.6224,8.7304 3.6054,13.946 l 3.6054,9.483 17.2271,-8.3177 c 16.7207,-8.0732 17.3484,-8.1129 21.3567,-1.352 2.2713,3.8312 10.2204,14.8257 17.6646,24.4322 l 13.5349,17.4665 -13.5349,13.6188 -13.535,13.6187 9.2453,7.1685 c 13.2226,10.2525 16.5265,9.1973 24.1523,-7.7139 5.6211,-12.4653 8.0967,-14.6217 14.4295,-12.5692 4.2044,1.3627 17.3528,5.2215 29.2186,8.5752 l 21.5743,6.0975 -2.4254,19.415 -2.4253,19.415 13.5491,0 13.5491,0 -1.2642,-18.9972 0,0 z m 14.6752,-103.1347 c 12.358,-7.5345 22.8906,-26.3219 22.8906,-40.8311 0,-25.1666 -31.3469,-51.359 -55.6491,-46.4985 -34.7936,6.9587 -51.2762,44.4553 -32.0697,72.9558 15.1909,22.5417 41.7665,28.4341 64.8282,14.3738 z m 772.1422,-11.0441 c 26.2283,-2.0585 112.5893,-11.1783 191.9135,-20.2663 171.8733,-19.691 217.3536,-24.059 250.5459,-24.0631 13.7291,0 24.9621,-1.3667 24.9621,-3.0332 0,-1.6665 -11.6283,-11.7041 -25.8406,-22.3057 -108.3394,-80.8153 -255.5896,-144.3495 -441.9684,-190.6965 -75.8929,-18.8723 -157.2777,-35.0109 -345.7718,-68.5664 -297.7651,-53.0077 -405.9812,-77.202 -521.1546,-116.5167 -15.1024,-5.1552 -27.9151,-9.3731 -28.4726,-9.3731 -0.5575,0 5.8285,12.065 14.1911,26.8111 8.3627,14.7462 22.9939,43.4527 32.5138,63.7922 l 17.3089,36.9809 58.8265,24.6756 c 32.3545,13.5715 115.4073,45.6477 184.5617,71.2804 169.6756,62.8918 228.6579,86.4915 305.497,122.2337 66.1623,30.7759 136.5777,70.3606 173.4062,97.4822 23.5009,17.3066 28.9668,17.884 109.4813,11.5649 l 0,0 z m -896.1126,-75.088 c 25.6589,-56.0465 89.8464,-79.7396 143.9922,-53.1508 24.147,11.8577 44.2541,33.297 53.2022,56.7273 3.3785,8.8466 7.8967,16.0847 10.0404,16.0847 4.6614,0 48.1622,-8.4499 50.013,-9.7149 1.776,-1.2138 -6.9838,-27.2661 -9.1679,-27.2661 -0.9648,0 -8.4438,3.7444 -16.6201,8.3208 l -14.866,8.3207 -6.2062,-8.4754 c -3.4134,-4.6614 -11.6224,-15.229 -18.2422,-23.4836 l -12.0361,-15.0083 11.8198,-14.9237 11.8198,-14.9237 -8.5142,-6.8943 c -11.8664,-9.6089 -13.9244,-8.8861 -22.4871,7.898 -8.3675,16.4018 -9.865,16.9481 -26.9299,9.8256 -6.545,-2.7318 -18.015,-6.1119 -25.4888,-7.5114 l -13.5888,-2.5446 2.0873,-20.2243 2.0874,-20.2243 -13.7268,0 -13.7268,0 2.4941,19.9624 2.4941,19.9625 -12.2503,2.6906 c -6.7377,1.4798 -19.4786,5.789 -28.3133,9.576 l -16.0629,6.8854 -6.2731,-11.3249 c -12.8084,-23.123 -12.8735,-23.1612 -24.2393,-14.2209 l -10.322,8.1193 13.0993,13.415 13.0994,13.4149 -12.8231,16.2046 c -7.0527,8.9125 -12.876,17.2184 -12.9407,18.4576 -0.065,1.2393 -2.4095,5.2765 -5.2108,8.9716 -4.8962,6.4587 -5.695,6.4114 -20.6619,-1.2241 -16.7278,-8.5339 -20.1901,-7.3507 -24.0328,8.2126 -2.6034,10.5439 -1.5339,11.2201 24.1364,15.2634 23.9387,3.7706 24.9862,3.2461 34.3457,-17.1977 l 0,0 z m 1060.7396,-179.7324 c 110.1631,-52.2016 273.6001,-84.6513 435.1637,-86.4001 32.8483,-0.3553 58.5228,-1.713 57.0544,-3.0167 -9.5725,-8.4987 -116.1154,-69.0837 -165.386,-94.0457 -58.3759,-29.5751 -112.3347,-49.422 -154.9495,-56.9929 -12,-2.1318 -44.7355,-11.366 -72.7456,-20.5204 -134.7305,-44.0331 -289.8425,-71.2247 -497.1314,-87.1488 -28.4754,-2.1875 -129.9881,-4.8526 -225.5838,-5.9226 -172.6469,-1.9324 -292.5592,1.6779 -465.0833,14.0028 -57.8815,4.135 -61.6814,4.8564 -57.3205,10.8823 2.5688,3.5496 20.976,30.5152 40.9048,59.9237 l 36.2342,53.4698 45.1239,15.1048 c 124.3508,41.6254 196.5133,57.7433 509.2347,113.74 118.9862,21.306 242.9648,44.6299 275.508,51.8308 63.5679,14.0659 157.1266,38.5054 181.2067,47.3349 8.1358,2.9831 15.8266,5.5411 17.0906,5.6845 1.2641,0.1431 19.5696,-7.9236 40.6791,-17.9264 z m -1553.8226,-199.968 c 124.4707,-23.3912 172.9274,-26.7946 213.9569,-15.0276 l 12.0755,3.4633 -11.9548,-15.0942 c -24.6226,-31.0886 -122.6845,-106.6595 -145.9946,-112.51 -6.1034,-1.5318 -17.5018,5.6552 -48.1233,30.3431 -71.5375,57.6755 -104.8423,93.5155 -104.8423,112.8229 0,5.9193 1.427,10.7622 3.1711,10.7622 1.744,0 38.5142,-6.6418 81.7115,-14.7597 l 0,0 z m 1733.936,-76.5475 c 119.4358,-54.5876 279.7011,-89.936 407.4344,-89.8646 42.8081,0.022 97.4431,4.2927 123.8862,9.6795 10.3186,2.1021 9.8014,1.2327 -7.3962,-12.4354 -87.6108,-69.6299 -242.9975,-155.9181 -373.5076,-207.4134 -55.1497,-21.7605 -55.8145,-21.9153 -114.6409,-26.7094 -32.5432,-2.6522 -106.5976,-4.6767 -164.5652,-4.4989 -226.241,0.6936 -433.1901,25.8278 -830.2223,100.8315 -169.8098,32.0789 -260.4364,48.2328 -354.8528,63.2514 -50.7584,8.074 -92.8098,15.2018 -93.4475,15.8395 -0.6377,0.6377 7.6091,11.0425 18.3262,23.1218 10.7171,12.0793 26.2657,30.0546 34.5524,39.945 l 15.0668,17.9827 88.4799,-6.0983 c 171.7278,-11.8359 268.3765,-14.4658 455.6426,-12.3983 207.5164,2.2911 289.9694,7.772 435.3238,28.937 103.6938,15.0988 197.0936,36.1875 275.0082,62.0938 23.6654,7.8687 46.0664,13.4967 49.7801,12.5068 3.7138,-0.99 19.5231,-7.6368 35.1319,-14.7707 l 0,0 z"
         style="fill:#000000;fill-opacity:1;stroke:none" />
      <path
         inkscape:connector-curvature="0"
         id="path4141"
         d="m 1239.7191,2274.9441 c -27.5434,-10.2175 -27.1735,-9.9212 -27.8756,-22.3269 -0.3773,-6.6666 -11.7639,-21.9521 -36.5163,-49.02 -19.7824,-21.6331 -35.3004,-40.0005 -34.4843,-40.8165 0.8161,-0.8161 11.536,4.4077 23.8222,11.6084 20.5709,12.0563 85.643,35.578 114.1203,41.2514 6.6104,1.3169 11.9542,3.5103 11.8751,4.8741 -0.4729,8.1603 -20.9699,61.2558 -23.968,62.0869 -1.9932,0.5524 -14.1312,-2.8934 -26.9734,-7.6574 l 0,0 z"
         style="fill:#000000;fill-opacity:1;stroke:none" />
      <path
         inkscape:connector-curvature="0"
         id="path4143"
         d="m 1695.75,875.03125 c -4.681,0 -44.8927,37.5481 -110.9688,103.59375 l -103.625,103.5625 -14,-11.5625 c -7.7043,-6.3506 -14.7353,-10.7959 -15.625,-9.9062 -5.5579,5.5579 -52.0603,112.6355 -62.625,144.2187 -11.0764,33.1127 -24.0799,95.0522 -24.125,114.875 -0.01,3.603 4.1339,8.4331 9.2188,10.75 5.0849,2.3168 9.25,5.3944 9.25,6.8125 0,1.4181 -17.0583,16.8126 -37.9062,34.2188 -43.5822,36.3869 -91.1973,84.2143 -100.9376,101.375 -5.7638,10.1549 -6.0884,13.824 -2.2812,26.5312 2.4291,8.1078 11.0545,23.5612 19.1562,34.3438 8.1018,10.7825 14.7188,20.7022 14.7188,22.0624 0,1.3602 -13.7199,14.1819 -30.5,28.5 -67.7762,57.8326 -111.4408,110.5898 -140.0312,169.125 -19.7136,40.3608 -69.8438,185.1541 -69.8438,201.75 0,11.737 14.7076,30.7353 29.8438,38.5626 14.416,7.4548 39.0857,6.7663 66.75,-1.8438 12.8061,-3.9857 23.8752,-6.656 24.5937,-5.9375 0.7184,0.7184 -3.1043,17.5067 -8.5,37.3125 -9.3172,34.2006 -10.2188,50.8713 -3.7813,70.3125 1.7685,5.3409 -0.8185,11.698 -8.9062,21.875 -6.2713,7.8914 -12.4019,18.3454 -13.625,23.2187 -3.7066,14.7683 9.8381,38.0173 41.1875,70.6876 16.2861,16.9723 31.0624,33.3892 32.8125,36.4687 4.5397,7.9885 0.177,30.4223 -10.875,55.9063 l -9.5312,21.9374 10,19.75 c 14.2557,28.1324 28.8174,44.9607 54.7812,63.2188 l 22.6875,15.9375 37,-0.4375 c 26.0973,-0.3086 43.7676,-2.6431 60.0937,-7.9375 l 23.1563,-7.5 19.875,22.7187 c 23.8078,27.2225 71.2139,95.3097 97.8437,140.4688 27.9778,47.4445 31.3163,51.2924 80.0626,92.4062 24.4073,20.586 54.7878,47.2954 67.5,59.375 l 23.125,21.9688 0,169 c 0,92.9555 1.0503,176.7509 2.3437,186.1875 l 2.3437,17.1563 18.9063,0 18.9375,0 -1.0625,-185.125 -1.0625,-185.1563 78.3125,-160.625 78.3437,-160.625 L 1866.0625,2249 c -2.9274,-189.8515 -1.8876,-204.4671 14.0625,-200.1875 4.3591,1.1696 9.3457,2.1575 11.0938,2.1875 1.7479,0.028 2.4086,6.2789 1.4687,13.9062 -0.9399,7.6274 -0.3091,17.6112 1.375,22.1876 2.7118,7.3693 5.5799,8.3124 25.3125,8.3124 l 22.2812,0 0,209.875 -0.031,209.875 -64.6875,108.8438 -64.6875,108.875 0.031,83.4375 c 0.028,45.8909 1.0548,87.1736 2.2813,91.75 1.9451,7.2581 4.6593,8.3437 21.2187,8.3437 l 18.9688,0 -1.0312,-85.2187 -1.0626,-85.1875 43.5626,-73.9375 43.5937,-73.9375 0.9687,258.9688 0.9376,259 20.3124,0 20.3126,0 0.5312,-180.2813 c 0.2951,-99.1552 1.551,-282.1292 2.7812,-406.5937 l 2.25,-226.2813 29.4688,46.9375 29.4688,46.9375 2.9687,122.0313 c 1.6247,67.1203 3.7641,125.7673 4.7813,130.3437 1.6152,7.2676 4.1923,8.3437 20.2812,8.3437 l 18.4062,0 -0.3437,-60.0937 c -0.1918,-33.0517 -1.4426,-94.3161 -2.7813,-136.125 l -2.4374,-76 -52.6876,-83.8437 -52.6874,-83.8438 0.031,-67.5625 c 0.022,-37.1692 1.0936,-73.9328 2.375,-81.6875 l 2.3438,-14.0938 20.4062,36.2813 c 11.2342,19.9584 48.4445,86.9556 82.6875,148.9063 l 62.2813,112.6562 0,183.6562 0,183.6563 -57.1876,69.8125 -57.1874,69.8125 -0.1876,109.0937 c -0.092,60.0016 -1.2173,117.8219 -2.5,128.5 l -2.3124,19.4376 22.6874,0 22.7188,0 0,-120.0313 0,-120.0313 34.2188,-42.6562 34.1874,-42.6875 2.4688,17.5625 c 1.3473,9.6471 2.5853,51.6478 2.7812,93.3438 0.1959,41.696 1.4049,84.5404 2.6876,95.2187 l 2.3437,19.4375 17.5313,0 17.5,0 2.75,-230.9062 2.75,-230.9063 40.2187,54.3125 40.1875,54.3125 0.031,226.5 0.031,226.5313 20.3437,0 20.3438,0 0,-234.4376 0,-234.4062 -45.0312,-60.5 c -24.7701,-33.2754 -53.8948,-72.8254 -64.7188,-87.875 l -19.6875,-27.375 0,-54.9062 c 0,-30.206 0.9133,-54.9063 2.0313,-54.9063 12.5379,0 168.1376,98.2447 226.375,142.9375 31.7164,24.34 37.875,27.2613 37.875,17.9688 -1e-4,-10.9511 -23.5065,-79.0796 -48.875,-141.7188 -14.2566,-35.202 -25.1949,-64.7114 -24.3126,-65.5938 2.8526,-2.8526 42.292,8.8473 79.4688,23.5938 19.9307,7.9057 78.9794,37.7726 131.2188,66.375 93.6448,51.273 128.75,68.9507 128.75,64.8438 -1e-4,-3.343 -53.3203,-96.8657 -95.4688,-167.4688 -41.8244,-70.0604 -64.0065,-104.4533 -75.8125,-117.5312 -4.124,-4.5684 -6.4686,-9.3127 -5.2187,-10.5626 5.4006,-5.4006 143.7454,41.0071 282.5624,94.7813 41.9792,16.2616 77.1152,28.7598 78.0938,27.7813 2.4162,-2.4163 -37.7193,-73.9138 -76.5312,-136.3126 -46.4145,-74.6211 -73.85,-110.0259 -123,-158.6874 -38.2949,-37.9144 -42.7827,-43.5628 -35.5,-44.9688 4.5826,-0.8848 32.2881,-3.4631 61.5624,-5.7188 29.2742,-2.2556 128.2854,-12.2307 220.0313,-22.1874 91.7459,-9.9567 186.7801,-19.1861 211.1875,-20.5 49.4067,-2.6597 57.3792,-4.1119 57.2188,-10.4688 -0.1484,-5.8757 -67.2211,-55.6895 -110.8126,-82.2812 -45.3606,-27.6712 -118.0271,-62.5778 -183,-87.9063 L 2875.75,1708 l 22.2812,-11.25 c 49.3467,-24.9101 145.4864,-52.9861 228.875,-66.8438 59.9653,-9.9652 124.419,-15.2614 223.1876,-18.2812 l 82.6874,-2.5 -75.1874,-44.4062 c -130.9432,-77.2828 -226.6627,-121.7013 -279.6876,-129.8126 -8.6443,-1.3222 -15.7187,-3.6327 -15.7187,-5.1562 0,-5.282 71.7218,-33.3302 138.6875,-54.2188 47.7376,-14.8906 133.0086,-32.5221 183.8438,-38.0312 53.2087,-5.7664 148.7897,-4.7577 203.3437,2.1562 33.1691,4.2039 48.9803,4.8948 51.6563,2.2188 2.6761,-2.6761 -4.4827,-10.4933 -23.4063,-25.5312 -94.5998,-75.175 -222.1559,-148.4135 -366.0313,-210.1563 -31.1909,-13.3854 -58.1192,-25.7131 -59.8124,-27.4063 -6.2647,-6.2647 131.1278,-70.5952 204.5624,-95.7812 119.9186,-41.12859 221.4871,-58.95527 353.1563,-62 57.415,-1.32767 74.2191,-2.81177 75.0625,-6.625 1.6748,-7.57224 -63.2337,-39.37989 -79.9062,-39.15625 -13.3772,0.17943 -13.0989,0.47061 14.0937,14.40625 l 27.7187,14.21875 -20.3124,2.09375 c -11.1867,1.14943 -43.6497,2.999 -72.125,4.125 C 3535.4687,916.28067 3352.685,969.86753 3198.375,1055 l -35.7812,19.75 -34.6876,-3.625 c -62.5513,-6.4862 -205.3153,-8.4982 -295.5,-4.1875 -190.603,9.1103 -353.9636,31.4741 -718.7812,98.4375 -156.893,28.7981 -319.7043,57.4465 -398.7812,70.1875 l -58.5313,9.4375 -45,-43.0312 c -24.7493,-23.6669 -45.438,-44.1401 -45.9687,-45.5 -0.5307,-1.36 124.9513,-65.2222 278.8437,-141.9376 238.6806,-118.98214 277.6324,-139.49995 264.9375,-139.49995 -12.1624,0 -64.3739,24.66958 -285.5938,134.99995 l -270.6874,135 -30.9063,-26.8124 -30.9063,-26.8438 26.5,-27.7188 c 14.5849,-15.2547 62.3014,-63.94899 106.0313,-108.18745 55.3497,-55.99335 77.2978,-80.4375 72.1875,-80.4375 z m 1263.4375,204.37495 c 91.9065,0.061 175.4903,3.5802 205.5313,10.3126 52.381,11.7388 210.4553,86.3812 313.5,148.0312 54.0789,32.3546 129.0664,84.496 125.9687,87.5938 -0.8506,0.8505 -20.1092,-0.4929 -42.8125,-3 -50.4787,-5.5743 -160.1121,-2.6977 -211.9375,5.5624 -91.5878,14.5978 -170.1255,36.3348 -249.2187,68.9688 -30.0706,12.4071 -58.8214,23.1927 -63.9063,23.9688 -5.0848,0.776 -19.2338,-1.9133 -31.4375,-5.9688 -82.188,-27.3121 -194.7958,-52.6973 -303.25,-68.3438 -142.8428,-20.6075 -267.1606,-27.6694 -486.3125,-27.6874 -164.0037,-0.014 -251.7965,2.8575 -398.9687,13.125 l -82.7813,5.7812 -11.5,-14 c -6.3318,-7.6957 -21.0588,-24.8471 -32.7187,-38.125 -11.6599,-13.2779 -21.2443,-25.0221 -21.2813,-26.0938 -0.035,-1.0717 38.6481,-8.2977 85.9375,-16.0624 47.2894,-7.7648 130.8958,-22.3124 185.8125,-32.3438 512.1482,-93.5519 599.7108,-107.3057 787.6875,-123.6562 63.009,-5.4807 150.5935,-8.1162 231.6875,-8.0626 z m -742,256.125 c 251.4574,0.063 270.6621,0.5156 345.75,8.5 190.953,20.3047 298.396,40.8717 438.25,83.875 22.3735,6.8796 57.6217,16.6442 78.3437,21.6876 67.7095,16.4788 150.8781,55.0913 262.875,122.0312 l 38,22.6875 -50.9374,2.5625 c -167.4788,8.3995 -278.3116,26.9759 -379,63.5625 -18.8936,6.8653 -48.4927,19.0156 -65.7813,27 l -31.4375,14.5313 -22.1875,-6.9063 c -91.0848,-28.3406 -184.173,-48.4263 -449.3125,-97 -313.0719,-57.3549 -364.4364,-68.5876 -484.4688,-105.9687 l -72.0937,-22.4688 -39.6875,-58.5 -39.6875,-58.4688 10.0937,-2.0312 c 5.5547,-1.1111 51.7138,-4.9752 102.5626,-8.5938 75.9154,-5.4023 140.082,-6.555 358.7187,-6.5 z m -813.5937,12.9063 c 16.949,0.086 93.0022,55.2664 134.9687,97.9063 l 24.0625,24.4062 -16.6562,-2.9375 c -39.3181,-6.9389 -102.7274,-2.5287 -190.4376,13.2187 -46.7809,8.399 -88.0661,15.9794 -91.75,16.8438 -9.7325,2.2838 -11.4584,-6.4968 -4.25,-21.6875 12.3387,-26.002 127.1696,-127.836 144.0626,-127.75 z m 433.7187,140.5 c 0.782,0 25.7974,7.5397 55.5625,16.7813 113.1106,35.1185 197.6145,53.396 521.7188,112.7187 100.4462,18.3853 212.7795,40.087 249.625,48.25 216.0347,47.8621 370.5036,109.397 492.8437,196.3437 16.7736,11.9211 31.4472,23.2507 32.625,25.1563 2.6914,4.3549 -11.7795,6.5759 -60.9375,9.375 -21.3565,1.216 -74.6139,6.2239 -118.3438,11.125 -43.73,4.901 -126.9385,13.8419 -184.9062,19.875 -180.1621,18.7507 -180.4121,18.7336 -216.9375,-7.75 -78.1989,-56.7 -196.8434,-110.7073 -469.0313,-213.5 -54.9166,-20.7395 -131.5923,-50.3461 -170.375,-65.7813 l -70.5312,-28.0624 -31.3438,-62.2813 c -17.2528,-34.2524 -30.7506,-62.25 -29.9687,-62.25 z m -296.9375,0.031 c 23.6282,0.3309 40.5899,6.8118 52.5,19.3437 13.6889,14.4037 57.4706,78.1829 91.125,132.7813 26.7441,43.3873 72.7907,124.6722 72.7188,128.375 -0.025,1.2925 -12.0915,7.1442 -26.8126,13 -58.5258,23.2803 -175.1343,101.3219 -199.625,133.5937 -20.7903,27.396 -51.2976,89.3228 -72.8437,147.9063 -10.4729,28.4753 -20.5038,55.1195 -22.3125,59.1874 -3.1334,7.0474 -3.2927,6.985 -3.5312,-1.0312 -0.4274,-14.3663 -14.4499,-49.5784 -27.6563,-69.4688 -6.9396,-10.4516 -39.1458,-45.4716 -71.5625,-77.8124 -71.3409,-71.1738 -82.5618,-89.6589 -85.2188,-140.2813 -1.1411,-21.7426 -3.1646,-31.4247 -6.7812,-32.8125 -6.0271,-2.3128 -23.2018,20.1563 -41.8438,54.75 l -12.75,23.6562 11.9688,10.0626 c 6.5789,5.5357 14.388,14.7529 17.3438,20.4687 11.1102,21.4848 -5.0619,49.4083 -31.0313,53.5937 -7.3994,1.1926 -26.9932,6.1975 -43.5625,11.1563 -35.6177,10.6593 -60.6625,11.5247 -75.7812,2.5937 -13.794,-8.1483 -16.2368,-18.0416 -10.4688,-42.5 6.5606,-27.8194 38.9839,-121.0425 55.2188,-158.75 27.4501,-63.7558 75.9954,-124.8129 144.3437,-181.5312 l 35.1563,-29.1562 17.625,19.6562 c 25.7477,28.6683 27.3342,33.0396 29.75,83.3125 1.1936,24.8411 4.165,51.8831 6.625,60.0937 4.1513,13.8556 5.422,14.926 17.75,14.875 18.1845,-0.075 48.6361,-7.5878 109.5937,-27.0937 28.3969,-9.0867 61.7586,-18.5108 74.1563,-20.9375 l 22.5624,-4.4062 17.0626,-41.25 c 9.3858,-22.6794 18.1472,-44.1457 19.4687,-47.7188 1.7345,-4.6898 -12.314,0.6637 -50.5,19.3125 l -52.9063,25.8437 -11.3124,-7.2187 c -6.2158,-3.9777 -18.7847,-10.9798 -27.9376,-15.5625 -9.1528,-4.5827 -17.3522,-8.8381 -18.25,-9.4375 -0.8978,-0.5994 7.1888,-10.0219 17.9688,-20.9375 24.8569,-25.1695 50.0158,-37.8379 86.2812,-43.4375 32.5159,-5.0206 36.9609,-11.0844 14.875,-20.3125 -21.7193,-9.0749 -53.5354,-12.0843 -90.6562,-8.5312 -18.8307,1.8024 -46.7142,4.2031 -61.9688,5.3124 l -27.75,2 31.4376,-11.3124 c 55.7763,-20.0797 97.1521,-29.8006 127.5312,-29.375 z m 369.4375,145.2187 c 0.5173,-0.5173 23.4865,8.1021 51.0313,19.1563 27.5448,11.054 119.7708,46.6875 204.9687,79.1874 199.2417,76.0038 234.124,90.4 310.2187,127.9063 130.4767,64.3107 229.0932,143.1967 295.9688,236.8125 21.9657,30.7486 65.7508,100.7799 87.5312,140 10.0055,18.0168 17.6691,33.2997 17.0313,33.9375 -0.6378,0.6379 -22.7874,-7.1761 -49.2187,-17.3437 -96.2553,-37.0277 -170.3612,-62.9792 -235.25,-82.4376 -73.2064,-21.9526 -62.658,-15.6238 -135.125,-81.0937 -76.7128,-69.3057 -182.0878,-146.936 -289.7188,-213.4063 -33.5602,-20.7259 -64.7355,-42.0353 -69.2812,-47.3437 l -8.25,-9.6563 -17.4688,6.2813 c -12.6394,4.5451 -18.7895,5.1845 -22.25,2.3125 -7.4291,-6.1656 -5.7601,-12.7701 6.8438,-27.125 l 11.625,-13.25 -10.7188,-11.2812 c -9.868,-10.4186 -44.0642,-32.6378 -50.375,-32.7188 -1.4966,-0.019 -7.1764,6.7041 -12.625,14.9375 -7.123,10.7635 -12.08,14.6673 -17.625,13.875 -6.5352,-0.9339 -7.8916,-4.093 -8.8438,-20.6875 -0.9602,-16.7361 -2.4026,-20.0921 -9.9687,-22.9688 -4.869,-1.8511 -11.5881,-7.5444 -14.9375,-12.6562 -6.2591,-9.5526 -35.2481,-80.7519 -33.5625,-82.4375 z M 1932.0312,1744 c 1.4812,0.015 2.9757,0.042 4.4688,0.094 2.9858,0.1036 5.9892,0.3051 9,0.5624 3.0103,0.2574 6.0086,0.5639 8.9688,0.9688 0.3366,0.046 0.664,0.1385 1,0.1875 0.5471,4.2675 0.25,6.5625 0.25,6.5625 l -4.9376,32.8438 c 13.9983,2.1123 27.6493,6.421 40.3126,12.75 l 14.8437,-29.6563 c 0,0 1.1174,-2.0665 4.0313,-5.25 0.7413,0.3774 1.5146,0.706 2.25,1.0937 2.5141,1.3265 5.0002,2.7141 7.4374,4.1563 2.4375,1.4422 4.8619,2.9458 7.2188,4.5 2.3566,1.554 4.6642,3.1819 6.9375,4.8437 2.2732,1.6619 4.4704,3.328 6.6563,5.0938 2.186,1.7658 4.3416,3.6343 6.4374,5.5 1.923,1.7123 3.8119,3.4566 5.6563,5.25 -2.0698,3.7848 -3.6563,5.5 -3.6563,5.5 l -23.3124,23.6875 c 10.0833,9.9369 18.6314,21.4366 25.1562,34 l 29.4375,-15.3125 c 0,0 2.0921,-1.0126 6.3125,-1.875 0.3207,0.6268 0.6868,1.244 1,1.875 1.2518,2.5224 2.4313,5.1012 3.5625,7.6875 1.1315,2.5864 2.2114,5.166 3.2187,7.8125 1.0076,2.6469 1.9636,5.3284 2.8438,8.0312 0.8803,2.7031 1.6877,5.4635 2.4375,8.2188 0.7497,2.7554 1.4153,5.5088 2.0313,8.3125 0.5607,2.5522 1.084,5.1296 1.5312,7.7187 -3.9265,1.8631 -6.25,2.3126 -6.25,2.3126 l -32.75,5.4687 c 0.3443,2.0759 0.5345,4.1605 0.7812,6.25 l -39.5937,0 c -0.326,-2.9419 -0.7581,-5.8622 -1.3437,-8.7187 -0.6424,-3.1338 -1.4358,-6.2035 -2.375,-9.2188 -0.9394,-3.0154 -2.0301,-5.9942 -3.25,-8.875 -1.2199,-2.8808 -2.5781,-5.6762 -4.0626,-8.4062 -1.4842,-2.73 -3.1113,-5.3747 -4.8437,-7.9376 -1.7325,-2.5629 -3.5668,-5.0267 -5.5313,-7.4062 -1.9644,-2.3797 -4.0385,-4.6635 -6.2187,-6.8438 -2.1802,-2.1801 -4.4642,-4.2855 -6.8437,-6.25 -2.3797,-1.9645 -4.8435,-3.7987 -7.4063,-5.5312 -2.5629,-1.7326 -5.2388,-3.3282 -7.9687,-4.8125 -2.73,-1.4843 -5.5255,-2.8738 -8.4063,-4.0937 -2.8807,-1.2199 -5.8284,-2.2795 -8.8437,-3.2188 -3.0154,-0.9392 -6.0851,-1.7326 -9.2188,-2.375 -3.1337,-0.6424 -6.358,-1.1393 -9.5938,-1.4688 -3.2358,-0.3291 -6.4907,-0.5 -9.8124,-0.5 -3.3219,0 -6.6082,0.1709 -9.8438,0.5 -3.2357,0.3294 -6.4291,0.8264 -9.5625,1.4688 -3.1333,0.6424 -6.2039,1.4358 -9.2187,2.375 -3.0147,0.9393 -5.9638,1.9988 -8.8438,3.2188 -2.8801,1.2199 -5.7083,2.6094 -8.4375,4.0937 -2.7292,1.4843 -5.3444,3.0799 -7.9063,4.8125 -2.5621,1.7325 -5.0587,3.5667 -7.4374,5.5312 -2.3787,1.9645 -4.6645,4.0699 -6.8438,6.25 -2.1792,2.1802 -4.2552,4.4641 -6.2188,6.8438 -1.9634,2.3795 -3.8308,4.8434 -5.5624,7.4062 -1.7319,2.563 -3.329,5.2076 -4.8126,7.9376 -1.4834,2.7299 -2.8432,5.5254 -4.0624,8.4062 -1.2192,2.8808 -2.3113,5.8596 -3.25,8.875 -0.9386,3.0153 -1.7017,6.085 -2.3438,9.2188 -0.5851,2.8565 -1.0179,5.7768 -1.3438,8.7187 l -37.6874,0 c 0.1671,-1.4156 0.2567,-2.8405 0.4687,-4.25 L 1763.875,1894 c 0,0 -2.2822,-0.4144 -6.1875,-2.1875 0.2827,-1.804 0.5383,-3.6226 0.875,-5.4063 0.5485,-2.9066 1.187,-5.8067 1.875,-8.6562 0.688,-2.8495 1.4264,-5.6482 2.25,-8.4375 0.8238,-2.7891 1.7009,-5.5558 2.6563,-8.2813 0.9552,-2.7254 2.0107,-5.4041 3.0937,-8.0624 1.0831,-2.6586 2.1998,-5.2871 3.4063,-7.875 0.5056,-1.0841 1.0984,-2.1475 1.625,-3.2188 4.2431,0.7993 6.3437,1.7812 6.3437,1.7812 L 1809.5,1858.5 c 6.3348,-12.6606 14.6929,-24.3184 24.625,-34.4062 l -23.6875,-23.3126 c 0,0 -1.5956,-1.6628 -3.7187,-5.4062 1.5604,-1.5602 3.1643,-3.1251 4.7812,-4.625 2.0538,-1.9047 4.1394,-3.7583 6.2812,-5.5625 2.1418,-1.8044 4.3368,-3.5183 6.5626,-5.2187 2.2257,-1.7004 4.4755,-3.4068 6.7812,-5 2.3058,-1.5932 4.6492,-3.111 7.0312,-4.5938 2.3818,-1.4827 4.7959,-2.9123 7.25,-4.2812 1.1248,-0.6277 2.298,-1.1781 3.4376,-1.7813 2.9504,3.1309 4.0937,5.125 4.0937,5.125 l 15.2813,29.4687 c 12.5664,-6.5191 26.1915,-11.0519 40.1562,-13.375 l -5.4375,-32.75 c 0,1e-4 -0.3303,-2.3032 0.1563,-6.5937 2.3037,-0.3644 4.6074,-0.7273 6.9374,-1 2.8886,-0.3382 5.7939,-0.5869 8.7188,-0.7813 2.9252,-0.1938 5.886,-0.3279 8.8438,-0.375 1.4787,-0.023 2.9563,-0.046 4.4374,-0.031 z m -1.625,114.4062 c 32.6796,0 59.1563,26.5079 59.1563,59.1876 0,32.6796 -26.4766,59.1562 -59.1563,59.1562 -32.6796,0 -59.1874,-26.4765 -59.1874,-59.1562 0,-32.6796 26.5078,-59.1876 59.1874,-59.1876 z m 183.4063,1.7813 c 1.1687,-0.01 3.1001,1.0271 6.0313,2.5937 21.8644,11.6863 117.4392,74.5489 166.4687,109.5 141.8451,101.1161 229.3558,183.4502 285.4687,268.5 28.0382,42.4972 95.6801,155.185 116.4063,193.9376 2.4476,4.5764 3.9864,8.2829 3.4063,8.25 -0.5801,-0.033 -43.5092,-23.2995 -95.375,-51.7188 -100.0338,-54.8125 -139.0219,-72.3879 -189.0313,-85.1562 -17.0401,-4.3508 -33.2843,-9.8248 -36.0937,-12.1563 -2.8094,-2.3314 -15.9141,-20.9037 -29.125,-41.2813 -52.8353,-81.4967 -111.8038,-158.6974 -189.5938,-248.1562 -33.2126,-38.1946 -36.9062,-43.8321 -36.9062,-56.875 0,-16.0725 -2.9775,-19.0853 -22.0626,-22.1875 -11.5259,-1.8735 -13.0624,-3.4114 -13.0624,-13.0313 -1e-4,-9.8828 1.6851,-11.3784 17.9374,-15.9687 l 17.9376,-5.0625 -2.4688,-16.5938 c -1.6214,-10.8126 -2.1687,-14.5788 0.062,-14.5937 z M 1796.2188,1932 l 37.6874,0 c 0.3259,2.942 0.7586,5.8622 1.3438,8.7188 0.642,3.1337 1.4051,6.2034 2.3438,9.2187 0.9386,3.0153 2.0306,5.9943 3.25,8.875 1.2192,2.8809 2.5791,5.6763 4.0624,8.4063 1.4837,2.73 3.0809,5.3746 4.8126,7.9374 1.7316,2.5629 3.599,5.0267 5.5624,7.4063 1.9636,2.3796 4.0396,4.6635 6.2188,6.8437 2.1793,2.1802 4.465,4.2857 6.8438,6.25 2.3787,1.9645 4.8754,3.7988 7.4374,5.5313 2.562,1.7325 5.1771,3.3282 7.9063,4.8125 2.7292,1.4843 5.5574,2.8427 8.4375,4.0625 2.88,1.2199 5.829,2.3108 8.8438,3.25 3.0148,0.9393 6.0854,1.7327 9.2187,2.375 3.1334,0.6424 6.3268,1.1395 9.5625,1.4687 3.2356,0.3294 6.522,0.5 9.8438,0.5 3.3217,0 6.5766,-0.1707 9.8124,-0.5 3.2358,-0.3293 6.4601,-0.8263 9.5938,-1.4687 3.1337,-0.6423 6.2035,-1.4357 9.2188,-2.375 3.0153,-0.9392 5.963,-2.0301 8.8437,-3.25 2.8808,-1.2198 5.6763,-2.5782 8.4063,-4.0625 2.7299,-1.4843 5.4058,-3.08 7.9687,-4.8125 2.5628,-1.7325 5.0266,-3.5669 7.4063,-5.5313 2.3795,-1.9644 4.6635,-4.0699 6.8437,-6.25 2.1802,-2.1802 4.2543,-4.4641 6.2187,-6.8437 1.9645,-2.3796 3.7988,-4.8434 5.5313,-7.4063 1.7324,-2.5628 3.3595,-5.2074 4.8437,-7.9374 1.4845,-2.7301 2.8426,-5.5254 4.0626,-8.4063 1.2199,-2.8807 2.3106,-5.8597 3.25,-8.875 0.9392,-3.0153 1.7326,-6.085 2.375,-9.2187 0.5856,-2.8566 1.0177,-5.7768 1.3437,-8.7188 l 39.5937,0 c -0.2467,2.0896 -0.4369,4.1741 -0.7812,6.25 l 32.75,5.4688 c 0,0 2.3235,0.4494 6.25,2.3124 -0.4472,2.5894 -0.9704,5.1665 -1.5312,7.7188 -0.616,2.8037 -1.2816,5.5572 -2.0313,8.3125 -0.7498,2.7554 -1.5572,5.5157 -2.4375,8.2187 -0.8802,2.703 -1.8362,5.3531 -2.8438,8 -1.0073,2.6467 -2.0872,5.2573 -3.2187,7.8438 -1.1312,2.5863 -2.3107,5.165 -3.5625,7.6875 -0.3132,0.631 -0.6793,1.2482 -1,1.875 -4.2204,-0.8624 -6.3125,-1.875 -6.3125,-1.875 L 2050.75,1978.5 c -6.5248,12.5635 -15.0729,24.0632 -25.1562,34 l 23.3124,23.6875 c 0,0 1.5865,1.7152 3.6563,5.5 -1.8444,1.7933 -3.7332,3.5378 -5.6563,5.25 -2.0958,1.8657 -4.2514,3.7342 -6.4374,5.5 -2.1859,1.7658 -4.3831,3.4317 -6.6563,5.0937 -2.2733,1.6618 -4.5809,3.2897 -6.9375,4.8438 -2.3569,1.5542 -4.7813,3.0578 -7.2188,4.5 -2.4372,1.4421 -4.9234,2.8299 -7.4374,4.1562 -0.7354,0.3878 -1.5088,0.7164 -2.25,1.0938 -2.9139,-3.1835 -4.0313,-5.25 -4.0313,-5.25 l -14.8437,-29.6562 c -12.6633,6.329 -26.3144,10.6376 -40.3126,12.75 l 4.9376,32.8437 c 0,0 0.2972,2.295 -0.25,6.5625 -0.336,0.049 -0.6634,0.1418 -1,0.1875 -2.9602,0.4048 -5.9585,0.7112 -8.9688,0.9687 -3.0108,0.2574 -6.0142,0.4591 -9,0.5626 -2.9861,0.103 -5.9488,0.1087 -8.9062,0.062 -2.9578,-0.047 -5.9186,-0.1811 -8.8438,-0.375 -2.9249,-0.1943 -5.8304,-0.443 -8.7188,-0.7812 -2.33,-0.2727 -4.6337,-0.6356 -6.9374,-1 -0.4867,-4.2905 -0.1563,-6.625 -0.1563,-6.625 l 5.4375,-32.7188 c -13.9648,-2.323 -27.59,-6.8558 -40.1562,-13.375 l -15.2813,29.4688 c 0,0 -1.1433,1.9941 -4.0937,5.125 -1.1396,-0.6032 -2.3129,-1.1536 -3.4376,-1.7812 -2.4543,-1.3691 -4.8681,-2.7986 -7.25,-4.2813 -2.3821,-1.4828 -4.7255,-3.0006 -7.0312,-4.5937 -2.3058,-1.5933 -4.5557,-3.2995 -6.7812,-5 -2.2259,-1.7005 -4.4208,-3.4144 -6.5626,-5.2188 -2.1419,-1.8042 -4.2275,-3.6579 -6.2812,-5.5625 -1.617,-1.5 -3.2208,-3.0647 -4.7812,-4.625 2.1231,-3.7433 3.7187,-5.4063 3.7187,-5.4063 l 23.6875,-23.3124 c -9.9321,-10.0879 -18.2903,-21.7457 -24.625,-34.4063 l -29.6875,14.8437 c 0,0 -2.1007,0.9821 -6.3437,1.7813 -0.5267,-1.0713 -1.1194,-2.1347 -1.625,-3.2187 -1.2064,-2.588 -2.3233,-5.2166 -3.4063,-7.875 -1.083,-2.6584 -2.1385,-5.3683 -3.0937,-8.0938 -0.9554,-2.7254 -1.8326,-5.4921 -2.6563,-8.2812 -0.8237,-2.7892 -1.5621,-5.5567 -2.25,-8.4063 -0.6881,-2.8494 -1.3266,-5.7496 -1.875,-8.6563 -0.3368,-1.7836 -0.5923,-3.6022 -0.875,-5.4062 3.9053,-1.773 6.1875,-2.1875 6.1875,-2.1875 l 32.8125,-4.9375 c -0.212,-1.4095 -0.3016,-2.8343 -0.4687,-4.25 z m 311.5624,45.0625 c 1.378,0 20.7881,21.2233 43.125,47.1563 157.0164,182.2934 230.5854,301.7352 274.875,446.1874 8.2675,26.961 8.3014,32.146 0.063,22.2188 -6.151,-7.4115 -89.122,-61.9639 -164.2813,-108 -30.5093,-18.6873 -58.9635,-36.8904 -63.2187,-40.4688 -7.366,-6.1945 -156.8126,-273.9972 -156.8126,-281 10e-5,-1.8418 4.9919,-8.1228 11.0938,-13.9687 6.1018,-5.8459 11.0938,-12.0859 11.0938,-13.875 0,-1.7892 -4.4262,-9.0319 -9.8126,-16.0937 -8.6808,-11.3813 -9.2626,-13.8707 -5.0624,-21.7188 l 4.75,-8.8438 18.2812,7.2188 c 10.0469,3.9601 19.5975,6.3769 21.2188,5.375 1.6212,-1.002 5.0169,-6.8545 7.5624,-13 2.5456,-6.1455 5.7472,-11.1875 7.125,-11.1875 z m -369.4374,7.5 c 13.8709,-0.2368 21.0852,2.3936 25.625,8 6.5109,8.0406 6.67,8.0633 23.9374,1.4687 16.8218,-6.4242 17.5609,-6.4253 22.5938,0.2188 5.9969,7.9166 7.0194,16.0938 2,16.0938 -1.8954,0 -7.1004,5.1398 -11.5625,11.4062 -6.7996,9.5492 -7.4117,12.7204 -3.75,19.5625 9.9715,18.6319 -3.9238,38.8369 -128.6875,187.2187 -12.8265,15.2547 -31.5772,40.4128 -41.6562,55.9063 l -18.3126,28.1875 -19.9374,2.3438 c -10.9669,1.289 -66.9922,12.3964 -124.4688,24.6874 -57.4766,12.2911 -120.407,23.8895 -139.8438,25.7813 -70.8667,6.8977 -95.6599,0.7189 -125.7812,-31.3437 l -8.25,-8.7813 10.0938,-22.5 c 5.5544,-12.377 12.3478,-22.5 15.0624,-22.5 2.7147,0 18.5674,4.974 35.25,11.0625 16.6827,6.0884 30.8902,10.5161 31.5626,9.8438 0.6722,-0.6724 3.0026,-10.8689 5.1874,-22.6876 2.1848,-11.8187 8.0115,-30.6111 12.9376,-41.75 4.9262,-11.139 8.9374,-21.4275 8.9374,-22.875 0,-1.4473 -16.3977,-7.0554 -36.4687,-12.4374 -53.1515,-14.2529 -93.1764,-30.4766 -116.6875,-47.3126 -16.6992,-11.958 -20.035,-16.0067 -17.3125,-21.0937 5.5499,-10.37 18.123,-20.0489 22.5,-17.3437 2.2512,1.3913 6.6228,0.4131 9.7187,-2.1563 12.1707,-10.1008 90.007,-0.8333 142.625,16.9687 20.7062,7.0054 30.6941,13.0644 45.4063,27.5938 10.3772,10.2483 20.0698,18.6562 21.5313,18.6562 5.997,0 1.8331,-9.6688 -12.125,-28.1562 -14.007,-18.5521 -16.56,-20.1622 -49.125,-30.5938 -38.7871,-12.4247 -82.9908,-20.969 -126.4376,-24.4374 -16.2146,-1.2944 -31.6193,-4.0928 -34.2187,-6.25 -7.4417,-6.1761 -5.5268,-33.3484 4.5313,-64.7813 5.0776,-15.8681 10.5665,-30.9273 12.2187,-33.4687 2.3179,-3.5656 14.3626,-3.9485 52.7187,-1.6563 42.5399,2.5423 52.893,4.4509 71.7813,13.125 60.4665,27.768 97.341,74.905 118.3437,151.25 6.4904,23.5921 12.3969,26.5871 22.3438,11.4063 11.8144,-18.0313 129.1243,-135.0111 144.1562,-143.75 16.3824,-9.5241 56.4601,-20.4264 107.2813,-29.2188 20.7026,-3.5817 35.4927,-5.5033 46.2813,-5.6875 z m -271.875,396.2187 104.8124,15.7188 c 67.6434,10.1464 105.8516,17.4401 107.7813,20.5625 5.7401,9.2876 11.899,50.2292 11.6875,77.75 -0.2388,31.0392 -6.1054,50.9663 -30.2812,103 -8.641,18.5977 -17.5652,33.7278 -19.8126,33.625 -7.7548,-0.3548 -83.7348,-29.0059 -97.625,-36.8125 -10.4513,-5.8741 -21.5379,-19.6585 -44.4374,-55.25 -16.7833,-26.0852 -45.5939,-67.6872 -64.0313,-92.4688 -18.4374,-24.7817 -32.9556,-45.5358 -32.25,-46.0937 0.7057,-0.558 15.4303,-5.2716 32.7187,-10.5 l 31.4376,-9.5313 z"
         style="fill:#000000;fill-opacity:1;stroke:none" />
      <path
         inkscape:connector-curvature="0"
         id="path4145"
         d="m 2905.7188,350.78125 c -6.9142,-0.0474 -18.4517,1.34511 -38.5,4.3125 -122.0489,18.06465 -250.8743,48.81047 -487.3126,116.28125 -85.4259,24.37744 -178.6183,50.47856 -207.0937,58 -28.4753,7.52144 -52.7621,15.19345 -53.9375,17.0625 -1.1754,1.86904 -20.1171,13.41758 -42.125,25.65625 -144.0417,80.10192 -278.0585,191.59357 -527.5938,438.96875 l -68.9687,68.3437 -13.4375,-10.25 c -7.3926,-5.6386 -14.1203,-9.5359 -14.9688,-8.6874 -4.008,4.0081 -29.776,59.4142 -46.125,99.1874 -19.7742,48.106 -35.6494,105.4006 -39.4374,142.375 -2.1922,21.3959 -1.7184,23.7787 5.4687,27.625 4.3273,2.316 7.875,5.654 7.875,7.4376 0,1.7834 -17.885,18.9592 -39.75,38.1562 -52.7082,46.2764 -86.7369,80.7504 -95.2187,96.5 -5.9998,11.1408 -6.3265,14.8219 -2.5,27.5938 2.4297,8.1094 10.2172,23.1851 17.3124,33.5 7.0953,10.3148 12.9063,20.3666 12.9063,22.3124 0,1.9459 -16.2315,18.2903 -36.0625,36.3126 -91.9775,83.5878 -124.7607,132.3756 -164.6875,245.0624 -11.1703,31.5263 -22.8982,66.0718 -26.0625,76.75 l -5.7812,19.4063 8.5312,0 c 7.4227,0 9.5733,-3.6493 16.9062,-28.6563 11.1521,-38.0306 44.6845,-127.5053 56.4688,-150.6874 24.4735,-48.1443 83.1689,-116.3585 140.7188,-163.5626 l 25.125,-20.6562 14.9374,14.4375 c 23.8471,23.0752 29.0397,36.8999 33.125,87.7813 1.9877,24.7556 5.3389,51.4509 7.4376,59.3124 l 3.8124,14.2813 21.0313,-1.5625 c 11.5538,-0.8598 61.3408,-13.0983 110.6563,-27.2188 l 89.6562,-25.6874 18.5,-43.9376 c 10.1775,-24.1598 18.5312,-45.2957 18.5312,-46.9687 0,-1.6731 -23.4561,8.0376 -52.0937,21.5625 L 1501,1645.7188 1473.5938,1631.125 c -15.0753,-8.0317 -27.4195,-15.7288 -27.4376,-17.0938 -0.017,-1.3648 7.8475,-10.3474 17.4688,-19.9687 21.201,-21.201 52.1588,-36.4733 86.4062,-42.5937 28.0941,-5.0206 32.3596,-10.7537 14.7813,-19.8438 -19.5949,-10.1328 -58.1696,-13.7306 -102.125,-9.5625 -68.8672,6.5305 -72.0341,4.9206 -22.125,-11.1875 73.8557,-23.8369 109.939,-26.5285 138.6875,-10.3438 22.6269,12.7384 97.9102,124.8025 159.0312,236.7188 l 17.5,32 -31.875,14.5312 c -39.8011,18.1322 -90.878,49.0517 -139.8124,84.6563 -34.1641,24.8578 -64,53.4068 -64,61.2187 0,1.6678 82.9447,3.0313 184.3437,3.0313 l 91.8437,0 c -0.024,-0.2288 -0.035,-0.4588 -0.062,-0.6875 l 37.6874,0 c 0.026,0.2298 0.067,0.458 0.094,0.6875 l 39.1875,0 c -1.2691,-4.8215 -1.9687,-9.8737 -1.9687,-15.0937 0,-32.6796 26.5078,-59.1876 59.1874,-59.1876 32.6796,0 59.1563,26.5079 59.1563,59.1876 0,5.22 -0.6684,10.2722 -1.9375,15.0937 l 37.5938,0 c 0.027,-0.2295 0.068,-0.4577 0.094,-0.6875 l 39.5937,0 c -0.023,0.1984 -0.04,0.3952 -0.062,0.5938 27.182,-0.2333 46.9374,-0.8514 46.9374,-1.5938 0,-0.9386 -6.6454,-3.4967 -14.7812,-5.6875 -11.9089,-3.2067 -14.8125,-5.6891 -14.8125,-12.6563 0,-8.3195 3.8605,-10.9682 26.8125,-18.3437 4.7616,-1.5301 6.4688,-6.0288 6.4688,-17.0937 0,-18.1623 -3.7693,-19.6241 64.2812,24.7812 40.1058,26.1705 49.6795,30.9106 60.5312,29.9688 12.2185,-1.0605 9.4457,-3.3317 -53.1874,-43.25 -36.341,-23.1616 -73.566,-48.2757 -82.7188,-55.8126 -15.9857,-13.1634 -17.1291,-13.5003 -29.5625,-9 -28.5627,10.3388 -34.975,2.6966 -17.7187,-21.125 l 11.4374,-15.8124 L 2051.9688,1772 c -9.1019,-8.2357 -22.786,-18.3071 -30.4376,-22.375 l -13.9374,-7.375 -11.6876,13.875 c -16.2936,19.3057 -23.5528,18.2856 -26.8124,-3.7188 -1.9963,-13.4759 -5.5125,-20.1451 -15.0938,-28.6562 -8.7636,-7.7848 -16.8909,-22.016 -27.2812,-47.6875 -8.1442,-20.1219 -14.1592,-37.2161 -13.375,-38 1.3361,-1.3362 262.1962,98.4842 418.4687,160.125 83.1115,32.7829 181.9045,80.5135 231.75,111.9687 27.8515,17.5759 38.8457,22.5188 49.9063,22.4688 14.0857,-0.064 13.9023,-0.257 -25,-25.7812 -81.7196,-53.6168 -166.062,-91.3448 -445.25,-199.125 C 2037.4532,1666.888 1939.4162,1628.7683 1925.375,1623 l -25.5312,-10.4688 -29.2813,-58.4687 c -16.1031,-32.1508 -28.4703,-59.2485 -27.5,-60.2187 0.9703,-0.9704 29.8037,6.6316 64.0625,16.875 99.8991,29.8692 170.9061,45.7316 374.7812,83.8124 247.7778,46.2814 401.0918,77.0218 460.4063,92.2813 164.8552,42.411 291.1024,94.8556 392,162.8437 47.7376,32.1672 55.4895,38.0105 53.2813,40.2188 -0.9026,0.9026 -23.2489,3.5031 -49.6563,5.7812 -53.0927,4.5803 -318.9095,31.96 -336.4687,34.6563 -6.1019,0.9369 29.6993,1.1332 79.5312,0.4375 113.3075,-1.5819 337.7479,-22.4001 339.1562,-31.4688 0.9764,-6.2866 -37.8346,-37.3286 -86.9374,-69.5 -45.4764,-29.7954 -130.3994,-72.4012 -196.75,-98.7187 -29.4924,-11.6979 -54.3261,-21.8727 -55.1563,-22.5937 -2.6137,-2.2704 59.3927,-29.4334 90.2813,-39.5626 63.1657,-20.7137 153.0885,-39.4267 223.7187,-46.5624 46.0302,-4.6504 167.0913,-11.3223 208.9375,-11.5 36.3602,-0.1547 40.1072,3.2298 -61,-55.0938 -124.9375,-72.0701 -215.1651,-113.9361 -259.7812,-120.5312 -9.6613,-1.4283 -17.5938,-3.885 -17.5938,-5.4376 0,-7.4418 123.7698,-51.5966 187.25,-66.8124 89.0416,-21.3428 133.3668,-26.8932 215.8438,-27 41.6959,-0.054 96.3469,2.0905 121.4374,4.75 30.7638,3.2608 46.852,3.6167 49.375,1.0937 5.3699,-5.3699 -35.4583,-38.2983 -104.3124,-84.125 -84.5284,-56.2589 -158.8491,-96.005 -284.6876,-152.2187 -29.4923,-13.1748 -55.1152,-25.368 -56.9374,-27.125 -4.0665,-3.9211 101.643,-55.671 160.5,-78.56255 83.7451,-32.57152 173.6365,-55.99646 257,-66.96875 41.3765,-5.446 187.0561,-14.33218 203.2812,-12.40625 4.3542,0.51685 7.7713,-1.67539 8.5625,-5.5 1.0229,-4.94487 -9.7171,-11.70106 -47.9375,-30.09375 -68.5848,-33.00494 -105.6809,-47.9203 -181.2188,-72.84375 -121.5653,-40.11002 -232.7865,-66.13567 -505.9374,-118.40625 l -138.6876,-26.53125 -62.875,2.3125 c -123.0914,4.54012 -283.6464,28.33907 -375.8437,55.71875 -10.6386,3.15932 -20.8063,5.75 -22.5937,5.75 -1.7877,0 20.6799,-23.70368 49.9374,-52.6875 29.2575,-28.98382 81.355,-82.02678 115.7813,-117.84375 69.7019,-72.51755 117.675,-115.37826 163.6875,-146.34375 27.0246,-18.187 80.8151,-48.03776 96.7812,-53.71875 4.394,-1.56339 4.5791,-2.98248 1,-6.78125 -1.6176,-1.7169 -4.1848,-2.61938 -9.5624,-2.65625 z m -37.6876,17.1875 -12.9374,8.09375 c -83.524,52.09524 -124.6998,87.56262 -242.2188,208.75 -52.8828,54.5335 -105.2468,107.63205 -116.3438,117.96875 -11.0969,10.3367 -23.8818,22.37641 -28.4374,26.75 -4.9432,4.74525 -35.7938,16.95221 -76.5,30.28125 -158.347,51.84969 -262.5506,97.70168 -586.4376,258.0625 -137.1148,67.8874 -250.6437,123.4375 -252.2812,123.4375 -3.3901,0 -58.6875,-47.5833 -58.6875,-50.5 0,-4.5385 195.5062,-201.85315 245.9375,-248.21875 132.3117,-121.64513 241.0059,-204.49955 338.5938,-258.0625 21.2275,-11.65117 42.7588,-24.01252 47.8437,-27.46875 5.0848,-3.45623 18.407,-8.43217 29.5937,-11.0625 11.1867,-2.63033 101.0409,-27.67687 199.6876,-55.65625 98.6466,-27.97938 213.311,-59.50436 254.8124,-70.03125 76.6863,-19.45159 200.0863,-45.40958 237.0313,-49.875 l 20.3437,-2.46875 z m 77.6563,310.3125 157.1875,30.125 c 261.9023,50.19553 373.3553,76.63948 497.375,118.03125 70.4879,23.52547 127.3388,46.95679 160.875,66.34375 16.6555,9.6284 18.6644,11.77 11.0938,11.8125 -24.9525,0.14005 -134.5606,7.96525 -159,11.34375 -141.6428,19.5806 -302.2592,73.73338 -424,142.9687 l -26.4688,15.0626 -27.1562,-3.25 c -51.586,-6.1333 -231.4433,-8.27 -315.625,-3.75 -194.96,10.4677 -287.3475,23.5422 -774.75,109.5 -177.9708,31.3868 -338.465,59.4172 -356.6563,62.3124 l -33.0937,5.2813 -43.7188,-42.8125 c -24.6008,-24.082 -42.331,-44.2003 -40.5312,-46 4.6545,-4.6546 453.1849,-230.91795 529.4687,-267.09375 271.0849,-128.55568 528.86,-196.16451 791.4063,-207.5625 l 53.5937,-2.3125 z m -26.7187,404.43755 c 23.6978,-0.045 48.2462,0.1173 74.0937,0.4374 165.88,2.0545 170.0248,2.6371 240.5313,32.7188 50.4313,21.5167 160.7921,75.9041 211.3124,104.1562 37.4563,20.9466 147.9526,92.7796 151.4688,98.4688 1.5113,2.4454 -24.9853,2.9448 -78.2812,1.4688 -93.1399,-2.5796 -143.0841,1.355 -223.7813,17.6562 -66.8605,13.5062 -122.7238,30.242 -197.1563,59.0312 -31.4546,12.1663 -62.3174,21.8427 -69.0312,21.6563 -6.6805,-0.1855 -22.14,-3.5343 -34.3438,-7.4687 -147.8048,-47.6513 -335.7436,-77.9581 -550.8437,-88.7813 -159.6576,-8.0335 -551.6932,-0.3699 -686.75,13.4063 l -20.9063,2.125 -32,-37.5313 c -17.5989,-20.6407 -31.3026,-38.2286 -30.4687,-39.0625 2.0721,-2.0721 61.5523,-13.2586 165.3125,-31.125 47.7978,-8.2303 159.3043,-28.1345 247.7812,-44.2188 455.3178,-82.7719 603.983,-102.5064 833.0626,-102.9374 z M 2308.6875,1337.75 c 173.8994,-0.2383 218.4516,2.7711 315.2813,14.5625 148.7409,18.113 225.3499,33.7142 380.1874,77.3437 161.5996,45.5349 177.7929,52.1076 303.0626,123.0626 36.125,20.4618 64.8144,38.0606 63.75,39.125 -1.0644,1.0643 -36.4455,4.0642 -78.625,6.6562 -173.4428,10.6584 -277.8972,32.6209 -396.0938,83.2188 -23.1368,9.9044 -43.9624,17.8906 -46.25,17.7812 -2.2875,-0.1094 -14.14,-3.4023 -26.3438,-7.3438 -72.0509,-23.2704 -184.2336,-47.2792 -456.7187,-97.75 -186.4394,-34.533 -293.5989,-56.0622 -352.2813,-70.7187 -47.3942,-11.8373 -158.9025,-44.3522 -180.4687,-52.625 -6.2833,-2.4103 -22.36,-22.5713 -47.5313,-59.6875 -20.9139,-30.8386 -37.3004,-56.8245 -36.4062,-57.7188 0.8944,-0.8942 29.7631,-4.3078 64.1562,-7.5937 49.1643,-4.6973 124.2159,-6.3404 351,-7.6875 56.1404,-0.3335 103.1507,-0.57 143.2813,-0.625 z m -905.0313,13.75 c 5.5458,-0.12 10.9542,2.2183 18.9063,6.2188 22.4009,11.2689 72.1432,49.071 108.125,82.1562 l 27.25,25.0625 -56.8437,0.062 c -57.1555,0.059 -74.6526,2.159 -184.0938,22.2188 -60.3655,11.0646 -59.4865,11.0637 -59.4375,0.7812 0.07,-14.8975 47.4691,-65.1583 105.0313,-111.375 22.2107,-17.833 31.8195,-24.925 41.0624,-25.125 z m 528.375,392.5 c 1.4812,0.015 2.9757,0.042 4.4688,0.094 2.9858,0.1036 5.9892,0.3051 9,0.5624 3.0103,0.2574 6.0086,0.5639 8.9688,0.9688 0.3366,0.046 0.664,0.1385 1,0.1875 0.5471,4.2675 0.25,6.5625 0.25,6.5625 l -4.9376,32.8438 c 13.9983,2.1123 27.6493,6.421 40.3126,12.75 l 14.8437,-29.6563 c 0,0 1.1174,-2.0665 4.0313,-5.25 0.7413,0.3774 1.5146,0.706 2.25,1.0937 2.5141,1.3265 5.0002,2.7141 7.4374,4.1563 2.4375,1.4422 4.8619,2.9458 7.2188,4.5 2.3566,1.554 4.6642,3.1819 6.9375,4.8437 2.2732,1.6619 4.4704,3.328 6.6563,5.0938 2.186,1.7658 4.3416,3.6343 6.4374,5.5 1.923,1.7123 3.8119,3.4566 5.6563,5.25 -2.0698,3.7848 -3.6563,5.5 -3.6563,5.5 l -23.3124,23.6875 c 10.0833,9.9369 18.6314,21.4366 25.1562,34 l 29.4375,-15.3125 c 0,0 2.0921,-1.0126 6.3125,-1.875 0.3207,0.6268 0.6868,1.244 1,1.875 1.2518,2.5224 2.4313,5.1012 3.5625,7.6875 1.1315,2.5864 2.2114,5.166 3.2187,7.8125 1.0076,2.6469 1.9636,5.3284 2.8438,8.0312 0.8803,2.7031 1.6877,5.4635 2.4375,8.2188 0.7497,2.7554 1.4153,5.5088 2.0313,8.3125 0.5607,2.5522 1.084,5.1296 1.5312,7.7187 -3.9265,1.8631 -6.25,2.3126 -6.25,2.3126 l -32.75,5.4687 c 0.3443,2.0759 0.5345,4.1605 0.7812,6.25 l -39.5937,0 c -0.326,-2.9419 -0.7581,-5.8622 -1.3437,-8.7187 -0.6424,-3.1338 -1.4358,-6.2035 -2.375,-9.2188 -0.9394,-3.0154 -2.0301,-5.9942 -3.25,-8.875 -1.2199,-2.8808 -2.5781,-5.6762 -4.0626,-8.4062 -1.4842,-2.73 -3.1113,-5.3747 -4.8437,-7.9376 -1.7325,-2.5629 -3.5668,-5.0267 -5.5313,-7.4062 -1.9644,-2.3797 -4.0385,-4.6635 -6.2187,-6.8438 -2.1802,-2.1801 -4.4642,-4.2855 -6.8437,-6.25 -2.3797,-1.9645 -4.8435,-3.7987 -7.4063,-5.5312 -2.5629,-1.7326 -5.2388,-3.3282 -7.9687,-4.8125 -2.73,-1.4843 -5.5255,-2.8738 -8.4063,-4.0937 -2.8807,-1.2199 -5.8284,-2.2795 -8.8437,-3.2188 -3.0154,-0.9392 -6.0851,-1.7326 -9.2188,-2.375 -3.1337,-0.6424 -6.358,-1.1393 -9.5938,-1.4688 -3.2358,-0.3291 -6.4907,-0.5 -9.8124,-0.5 -3.3219,0 -6.6082,0.1709 -9.8438,0.5 -3.2357,0.3294 -6.4291,0.8264 -9.5625,1.4688 -3.1333,0.6424 -6.2039,1.4358 -9.2187,2.375 -3.0147,0.9393 -5.9638,1.9988 -8.8438,3.2188 -2.8801,1.2199 -5.7083,2.6094 -8.4375,4.0937 -2.7292,1.4843 -5.3444,3.0799 -7.9063,4.8125 -2.5621,1.7325 -5.0587,3.5667 -7.4374,5.5312 -2.3787,1.9645 -4.6645,4.0699 -6.8438,6.25 -2.1792,2.1802 -4.2552,4.4641 -6.2188,6.8438 -1.9634,2.3795 -3.8308,4.8434 -5.5624,7.4062 -1.7319,2.563 -3.329,5.2076 -4.8126,7.9376 -1.4834,2.7299 -2.8432,5.5254 -4.0624,8.4062 -1.2192,2.8808 -2.3113,5.8596 -3.25,8.875 -0.9386,3.0153 -1.7017,6.085 -2.3438,9.2188 -0.5851,2.8565 -1.0179,5.7768 -1.3438,8.7187 l -37.6874,0 c 0.1671,-1.4156 0.2567,-2.8405 0.4687,-4.25 L 1763.875,1894 c 0,0 -2.2822,-0.4144 -6.1875,-2.1875 0.2827,-1.804 0.5383,-3.6226 0.875,-5.4063 0.5485,-2.9066 1.187,-5.8067 1.875,-8.6562 0.688,-2.8495 1.4264,-5.6482 2.25,-8.4375 0.8238,-2.7891 1.7009,-5.5558 2.6563,-8.2813 0.9552,-2.7254 2.0107,-5.4041 3.0937,-8.0624 1.0831,-2.6586 2.1998,-5.2871 3.4063,-7.875 0.5056,-1.0841 1.0984,-2.1475 1.625,-3.2188 4.2431,0.7993 6.3437,1.7812 6.3437,1.7812 L 1809.5,1858.5 c 6.3348,-12.6606 14.6929,-24.3184 24.625,-34.4062 l -23.6875,-23.3126 c 0,0 -1.5956,-1.6628 -3.7187,-5.4062 1.5604,-1.5602 3.1643,-3.1251 4.7812,-4.625 2.0538,-1.9047 4.1394,-3.7583 6.2812,-5.5625 2.1418,-1.8044 4.3368,-3.5183 6.5626,-5.2187 2.2257,-1.7004 4.4755,-3.4068 6.7812,-5 2.3058,-1.5932 4.6492,-3.111 7.0312,-4.5938 2.3818,-1.4827 4.7959,-2.9123 7.25,-4.2812 1.1248,-0.6277 2.298,-1.1781 3.4376,-1.7813 2.9504,3.1309 4.0937,5.125 4.0937,5.125 l 15.2813,29.4687 c 12.5664,-6.5191 26.1915,-11.0519 40.1562,-13.375 l -5.4375,-32.75 c 0,1e-4 -0.3303,-2.3032 0.1563,-6.5937 2.3037,-0.3644 4.6074,-0.7273 6.9374,-1 2.8886,-0.3382 5.7939,-0.5869 8.7188,-0.7813 2.9252,-0.1938 5.886,-0.3279 8.8438,-0.375 1.4787,-0.023 2.9563,-0.046 4.4374,-0.031 z"
         style="fill:#000000;fill-opacity:1;stroke:none" />
      <path
         transform="matrix(1.3395549,0,0,1.3395549,-1238.6891,-689.06329)"
         d="m 2572.0249,2764.4563 c 0,13.2756 -10.762,24.0376 -24.0376,24.0376 -13.2756,0 -24.0376,-10.762 -24.0376,-24.0376 0,-13.2756 10.762,-24.0376 24.0376,-24.0376 13.2756,0 24.0376,10.762 24.0376,24.0376 z"
         sodipodi:ry="24.037615"
         sodipodi:rx="24.037615"
         sodipodi:cy="2764.4563"
         sodipodi:cx="2547.9873"
         id="path4156"
         style="fill:#000000;fill-opacity:1;stroke:none"
         sodipodi:type="arc" />
      <path
         transform="matrix(1.4483405,0,0,1.4483405,-1856.0984,-1087.7959)"
         d="m 2572.0249,2764.4563 c 0,13.2756 -10.762,24.0376 -24.0376,24.0376 -13.2756,0 -24.0376,-10.762 -24.0376,-24.0376 0,-13.2756 10.762,-24.0376 24.0376,-24.0376 13.2756,0 24.0376,10.762 24.0376,24.0376 z"
         sodipodi:ry="24.037615"
         sodipodi:rx="24.037615"
         sodipodi:cy="2764.4563"
         sodipodi:cx="2547.9873"
         id="path4156-4"
         style="fill:#000000;fill-opacity:1;stroke:none"
         sodipodi:type="arc" />
      <path
         transform="matrix(1.4483405,0,0,1.4483405,-1617.5712,-1348.5116)"
         d="m 2572.0249,2764.4563 c 0,13.2756 -10.762,24.0376 -24.0376,24.0376 -13.2756,0 -24.0376,-10.762 -24.0376,-24.0376 0,-13.2756 10.762,-24.0376 24.0376,-24.0376 13.2756,0 24.0376,10.762 24.0376,24.0376 z"
         sodipodi:ry="24.037615"
         sodipodi:rx="24.037615"
         sodipodi:cy="2764.4563"
         sodipodi:cx="2547.9873"
         id="path4156-0"
         style="fill:#000000;fill-opacity:1;stroke:none"
         sodipodi:type="arc" />
      <path
         inkscape:connector-curvature="0"
         id="path4185"
         d="M 1642.1872,1013.6387 C 1996.698,722.54646 2431.2755,460.73377 2834.6034,359.90178"
         style="fill:#000000;fill-opacity:1;stroke:none" />
      <path
         sodipodi:nodetypes="cc"
         inkscape:connector-curvature="0"
         id="path4215"
         d="m 2071.0386,1395.4211 c 198.8756,34.4077 1217.1095,82.9769 1317.9338,203.9659"
         style="fill:#000000;fill-opacity:1;stroke:none" />
      <path
         sodipodi:nodetypes="cc"
         inkscape:connector-curvature="0"
         id="path4219"
         d="m 2227.9356,1625.5365 c 266.8265,23.8205 764.7083,165.3135 967.5306,266.7247"
         style="fill:#000000;fill-opacity:1;stroke:none" />
      <path
         sodipodi:nodetypes="cc"
         inkscape:connector-curvature="0"
         id="path4223"
         d="m 2881.6725,2274.0436 c -101.2501,-111.0825 -483.5455,-408.83 -690.3463,-486.3803"
         style="fill:#000000;fill-opacity:1;stroke:none" />
      <path
         sodipodi:nodetypes="cc"
         inkscape:connector-curvature="0"
         id="path4227"
         d="M 2693.3963,2451.86 C 2576.1921,2307.1904 2321.3082,2049.7249 2186.0964,1944.5602"
         style="fill:#000000;fill-opacity:1;stroke:none" />
      <path
         sodipodi:nodetypes="cc"
         inkscape:connector-curvature="0"
         id="path4229"
         d="m 2431.9015,2509.3889 c -78.5007,-136.9868 -200.0328,-356.7135 -324.2536,-460.2308"
         style="fill:#000000;fill-opacity:1;stroke:none" />
      <path
         sodipodi:nodetypes="cc"
         inkscape:connector-curvature="0"
         id="path4261"
         d="M 2002.3517,1052.1514 C 2458.712,989.29372 3359.329,769.01761 3805.9411,904.70823"
         style="fill:#000000;fill-opacity:1;stroke:none" />
      <path
         sodipodi:nodetypes="cc"
         inkscape:connector-curvature="0"
         id="path4289"
         d="m 2285.4644,1243.7542 c 458.2654,-3.5956 917.3632,-61.123 1312.7038,73.2185"
         style="fill:#000000;fill-opacity:1;stroke:none" />
    </g>
  </g>
</svg>
